<?xml version="1.0" standalone="no"?>
<!DOCTYPE svg PUBLIC "-//W3C//DTD SVG 20010904//EN"
 "http://www.w3.org/TR/2001/REC-SVG-20010904/DTD/svg10.dtd">
<svg version="1.0" xmlns="http://www.w3.org/2000/svg"
 width="500.000000pt" height="500.000000pt" viewBox="0 0 500.000000 500.000000"
 preserveAspectRatio="xMidYMid meet">

<g transform="translate(0.000000,500.000000) scale(0.100000,-0.100000)"
fill="#000000" stroke="none">
<path d="M2590 4160 c-12 -8 -10 -10 10 -11 14 -1 42 -1 64 1 22 1 36 -2 32
-8 -3 -5 17 -12 47 -15 81 -8 273 -65 366 -108 138 -64 287 -161 404 -263 151
-133 282 -306 357 -474 52 -117 97 -254 106 -323 18 -148 24 -269 19 -379 -7
-136 -12 -166 -44 -283 -12 -43 -22 -88 -23 -102 -1 -13 -5 -22 -9 -20 -7 5
-29 -39 -29 -58 0 -7 -9 -30 -21 -51 -11 -21 -15 -35 -9 -31 10 6 -7 -32 -20
-45 -12 -12 -66 -98 -87 -140 -12 -25 -27 -45 -32 -45 -6 0 -29 -25 -53 -56
-114 -149 -175 -210 -330 -327 -37 -27 -64 -53 -61 -56 4 -3 -3 -6 -15 -6 -13
0 -22 -6 -22 -15 0 -8 -6 -15 -14 -15 -7 0 -21 -11 -32 -24 -10 -14 -28 -27
-41 -31 -13 -3 -23 -10 -23 -15 0 -6 -5 -10 -10 -10 -6 0 -30 -9 -53 -21 -130
-64 -287 -103 -487 -121 -113 -10 -139 -9 -272 10 -160 24 -264 53 -381 107
-67 30 -207 111 -207 120 0 2 10 1 23 -2 12 -3 -7 13 -43 37 -136 88 -283 221
-350 316 -37 53 -76 79 -95 64 -10 -8 -13 -7 -11 7 0 10 -6 18 -14 18 -8 0
-14 8 -14 18 1 9 -2 14 -7 11 -5 -3 -10 2 -10 10 -1 9 -2 21 -3 27 0 6 -8 16
-17 22 -45 33 -152 316 -180 476 -24 137 -29 392 -10 516 43 277 155 530 325
729 28 33 45 56 37 51 -10 -5 -12 -4 -7 3 4 7 13 12 21 12 8 0 17 5 21 12 5 7
2 9 -7 4 -16 -9 18 21 56 47 14 10 23 23 19 28 -3 5 -2 8 3 7 5 -2 15 3 23 10
8 7 34 26 58 43 41 30 53 49 31 49 -5 0 -7 -5 -3 -12 5 -8 0 -9 -15 -5 -16 4
-31 -4 -58 -30 -21 -19 -50 -42 -65 -51 -15 -9 -28 -23 -28 -31 0 -8 -3 -12
-6 -8 -4 3 -26 -15 -50 -41 -24 -26 -50 -47 -57 -47 -6 0 -12 -7 -12 -15 0
-21 -26 -55 -52 -69 -13 -6 -23 -17 -23 -24 0 -7 4 -6 10 3 6 9 10 10 10 3 0
-7 -9 -17 -20 -23 -11 -6 -20 -17 -20 -25 0 -8 -7 -15 -16 -15 -8 0 -12 -4 -9
-10 6 -9 -32 -71 -48 -78 -4 -2 -5 -8 -1 -13 3 -5 0 -9 -6 -9 -6 0 -8 -5 -5
-11 4 -6 -1 -17 -11 -25 -11 -9 -13 -13 -4 -9 13 6 13 5 0 -7 -8 -7 -16 -20
-18 -28 -2 -8 -8 -17 -13 -18 -5 -2 -7 -8 -3 -13 3 -5 -5 -9 -18 -10 -22 0
-22 -1 -3 -9 11 -5 15 -9 8 -9 -6 -1 -10 -10 -8 -21 2 -11 -1 -20 -6 -20 -6 0
-7 -4 -4 -10 3 -5 2 -10 -4 -10 -5 0 -8 -9 -6 -20 3 -13 0 -18 -7 -14 -7 5 -9
1 -5 -9 4 -10 2 -17 -4 -17 -7 0 -9 -12 -7 -29 2 -17 1 -28 -4 -25 -7 5 -12
-10 -9 -29 2 -11 -48 0 -75 18 -13 8 -29 15 -36 14 -7 0 -4 -4 7 -9 l20 -9
-20 -1 c-15 -2 -12 -5 10 -11 24 -6 18 -7 -27 -6 -33 1 -53 -2 -48 -7 5 -5 36
-7 69 -4 34 2 56 1 49 -4 -7 -4 -41 -8 -75 -8 -34 0 -64 -3 -67 -8 -2 -4 14
-6 37 -5 l42 2 -35 -8 c-47 -11 -19 -15 85 -12 25 0 45 5 45 10 0 5 -17 7 -37
5 l-38 -4 34 15 c48 21 59 19 53 -10 -4 -23 -9 -25 -56 -26 -28 -1 -63 -2 -79
-3 -18 0 -26 -5 -22 -14 3 -10 -1 -12 -18 -7 -17 5 -19 4 -7 -4 8 -6 24 -11
35 -12 11 0 14 -3 7 -6 -7 -3 -25 0 -40 5 -20 7 -36 6 -58 -4 -16 -8 -21 -12
-12 -10 10 3 20 1 23 -4 4 -6 -2 -10 -12 -11 -16 0 -16 -1 2 -9 27 -12 43 -12
25 0 -13 8 -13 10 1 10 11 0 17 -9 16 -26 0 -14 -2 -22 -6 -18 -14 19 -67 22
-85 4 -8 -8 -4 -9 16 -1 17 6 29 7 33 1 4 -6 -2 -10 -12 -11 -11 0 -13 -3 -5
-6 6 -2 10 -10 6 -16 -3 -7 2 -3 10 7 9 11 19 17 23 13 7 -7 -25 -47 -36 -45
-11 3 -51 -13 -51 -21 0 -3 9 -7 20 -7 11 0 20 7 20 16 0 11 2 12 8 2 5 -7 17
-10 28 -7 18 6 18 6 -1 -10 l-20 -17 20 4 c12 2 19 11 19 21 -2 14 5 17 35 15
31 -3 36 0 35 18 -1 11 5 21 12 21 17 0 18 -14 2 -20 -10 -4 -10 -6 0 -6 6 -1
12 -11 11 -23 0 -22 -1 -22 -9 -3 -5 11 -9 14 -9 6 -1 -7 -7 -11 -14 -8 -17 6
-41 -20 -24 -26 9 -4 9 -6 0 -6 -6 -1 -15 3 -18 9 -7 11 -41 -6 -63 -30 -7 -8
-11 -9 -7 -2 4 8 -2 12 -20 12 -17 0 -25 -5 -22 -12 2 -7 18 -13 35 -13 39 0
31 -12 -14 -21 -22 -4 -32 -10 -26 -16 5 -5 28 -2 56 7 27 9 50 15 52 13 2 -2
-20 -12 -49 -23 -68 -23 -74 -30 -52 -55 10 -11 13 -20 7 -20 -7 0 -12 -5 -12
-10 0 -6 11 -8 24 -6 18 3 23 1 19 -10 -3 -8 -13 -14 -23 -14 -11 0 -22 -5
-26 -11 -5 -8 3 -10 24 -7 17 2 29 1 26 -4 -3 -4 -13 -8 -22 -9 -14 0 -13 -2
3 -9 17 -7 17 -9 3 -9 -21 -1 -24 -21 -6 -39 9 -9 8 -12 -7 -12 -17 0 -17 -1
0 -20 14 -15 15 -20 4 -21 -8 -1 -3 -5 11 -9 19 -6 20 -8 6 -9 -12 -1 -16 -6
-12 -16 3 -8 1 -15 -4 -15 -6 0 -10 -5 -10 -11 0 -6 8 -9 18 -7 23 6 25 -19 3
-27 -13 -5 -11 -9 9 -20 22 -12 23 -14 8 -20 -25 -10 -23 -35 2 -30 26 5 25 1
-2 -26 -16 -15 -18 -20 -6 -16 17 6 19 -8 5 -30 -5 -8 -3 -13 3 -13 6 0 10 -8
8 -17 -2 -14 3 -18 22 -16 14 1 18 0 8 -3 -20 -6 -24 -29 -8 -39 6 -4 8 -15 5
-26 -5 -14 0 -22 17 -28 14 -6 17 -10 7 -10 -9 -1 -16 -8 -16 -16 0 -8 5 -11
10 -8 5 3 7 0 5 -8 -8 -20 10 -49 30 -49 15 -1 15 -2 -1 -11 -17 -10 -17 -11
1 -27 10 -9 17 -23 15 -29 -3 -7 2 -13 11 -13 19 0 22 -30 4 -30 -7 -1 -2 -10
11 -20 13 -11 19 -20 13 -20 -7 0 -6 -8 1 -24 8 -16 17 -22 32 -18 20 4 20 4
0 -11 -18 -15 -19 -16 -2 -17 10 0 15 -4 12 -10 -3 -5 2 -10 12 -11 10 0 13
-3 6 -6 -20 -7 -15 -21 8 -28 13 -4 17 -10 11 -14 -17 -11 4 -35 23 -27 16 6
16 4 4 -10 -11 -14 -11 -18 4 -29 9 -7 17 -17 17 -22 0 -6 11 -22 24 -36 14
-15 27 -36 31 -47 3 -11 13 -20 21 -20 8 0 13 -4 9 -9 -3 -5 5 -17 17 -25 12
-9 19 -16 14 -16 -5 0 10 -18 33 -40 22 -22 39 -40 37 -40 -2 0 25 -29 61 -65
36 -36 67 -65 71 -65 3 0 12 -7 21 -15 38 -37 88 -76 119 -92 17 -10 32 -21
32 -25 0 -5 7 -8 15 -8 8 0 15 -4 15 -10 0 -5 5 -10 11 -10 6 0 23 -8 37 -18
98 -68 328 -167 506 -218 165 -48 278 -64 441 -64 198 0 322 23 564 102 172
57 475 224 574 316 15 14 27 23 27 21 0 -6 136 128 191 187 50 56 191 244 182
244 -4 0 -3 4 2 8 12 8 45 58 46 69 0 5 8 16 16 26 9 9 14 20 10 23 -3 3 3 15
13 27 11 11 17 24 14 28 -2 4 4 13 13 19 13 8 14 13 5 16 -8 4 -5 11 10 25 13
10 19 18 14 19 -5 0 -3 6 3 14 12 14 22 47 24 78 1 9 5 14 9 12 7 -5 9 1 12
39 1 6 6 18 13 25 7 7 10 19 7 27 -4 8 -1 15 6 15 8 0 11 9 8 25 -3 14 -2 25
1 25 4 0 12 18 18 40 7 27 7 40 0 40 -6 0 -2 9 8 20 16 18 16 20 1 26 -15 6
-15 7 0 19 9 6 14 17 10 23 -4 7 -3 12 1 12 7 0 12 48 15 138 0 12 4 22 9 22
17 0 9 20 -8 20 -16 1 -16 2 2 16 17 13 18 16 5 24 -9 6 -11 13 -5 18 14 10
17 32 5 32 -12 0 -9 22 5 32 6 5 5 8 -2 8 -9 0 -10 7 -3 25 7 18 6 25 -3 25
-8 0 -7 4 3 10 13 9 13 11 0 20 -13 9 -13 10 0 10 13 0 13 2 1 9 -12 8 -12 12
-2 25 11 13 10 17 -4 22 -13 5 -14 9 -4 15 10 6 10 11 0 22 -9 12 -9 16 1 20
8 3 5 6 -7 7 l-20 1 20 9 c19 8 19 9 1 9 -16 1 -17 4 -8 13 9 9 8 16 -6 32 -9
11 -12 16 -5 13 6 -4 14 -3 18 3 3 5 1 10 -5 10 -7 0 -10 7 -6 15 3 10 -1 15
-12 16 -14 0 -14 2 3 9 11 5 15 9 8 9 -6 1 -12 9 -11 19 0 9 -3 30 -7 46 -3
16 -7 34 -8 40 -1 6 -11 19 -21 29 -18 16 -18 17 -1 17 17 0 17 1 1 19 -11 13
-14 21 -7 26 8 4 6 12 -5 22 -11 11 -12 18 -4 23 8 5 6 11 -4 20 -9 7 -13 16
-10 21 9 15 -27 23 -38 8 -8 -11 -9 -11 -4 3 2 9 0 19 -7 21 -7 2 2 3 18 1 20
-3 25 -1 16 5 -7 5 -10 14 -7 20 4 6 0 12 -8 12 -30 3 -34 4 -43 13 -5 6 -2 6
6 1 11 -6 13 -4 8 9 -5 14 -3 17 8 12 8 -3 15 -1 15 4 0 9 -14 14 -32 11 -11
-1 -5 22 7 31 6 4 2 8 -8 8 -10 0 -16 4 -13 9 9 14 -3 37 -19 39 -8 1 -22 3
-30 4 -8 1 -12 5 -9 9 2 5 11 6 19 2 23 -8 18 10 -6 25 -15 10 -19 10 -14 1 5
-8 4 -10 -4 -5 -6 4 -11 13 -10 19 4 29 -2 47 -15 47 -8 0 -16 7 -20 15 -3 8
-17 20 -31 25 -14 5 -25 14 -25 20 0 5 -7 10 -16 10 -8 0 -12 5 -9 10 3 6 -1
13 -9 16 -9 3 -16 16 -17 28 0 20 -1 20 -9 1 -7 -17 -9 -17 -9 -2 -1 9 -5 17
-10 17 -5 0 -11 9 -14 20 -4 15 -14 20 -39 21 -18 1 -37 1 -42 0 -5 -1 -6 4
-3 12 4 10 -2 13 -18 11 -18 -1 -23 3 -22 17 2 24 17 25 17 2 0 -12 3 -14 11
-6 12 12 49 6 49 -9 0 -5 -4 -6 -10 -3 -5 3 -10 1 -10 -4 0 -6 7 -11 15 -11 8
0 15 7 15 16 0 8 5 12 10 9 6 -4 9 -9 7 -13 -2 -4 7 -17 19 -28 20 -19 23 -20
29 -6 3 9 3 13 -1 10 -8 -8 -34 16 -34 31 0 6 -3 11 -7 12 -5 0 -19 3 -33 6
-14 2 -31 6 -38 7 -7 1 -18 8 -25 15 -10 11 -8 13 10 8 13 -3 26 0 30 5 3 6 2
9 -3 6 -5 -3 -20 -2 -33 3 -19 7 -21 12 -12 23 8 10 9 16 1 21 -6 3 -8 10 -6
14 3 4 -1 8 -7 8 -7 0 -13 -10 -14 -21 -1 -12 1 -15 4 -8 3 6 9 9 14 6 16 -9
-10 -32 -30 -27 -14 3 -20 -2 -23 -21 -5 -26 16 -44 28 -24 4 6 3 8 -4 4 -7
-4 -10 1 -9 14 1 20 17 29 17 9 0 -5 4 -8 8 -5 5 3 8 -7 6 -22 -1 -15 -3 -38
-3 -52 -1 -20 -3 -22 -11 -10 -5 8 -15 15 -21 15 -7 0 -14 5 -16 12 -3 7 4 10
19 6 19 -4 18 -2 -6 11 -15 9 -40 16 -55 17 -30 1 -75 17 -51 18 8 1 26 4 40
7 20 4 22 3 10 -5 -12 -9 -10 -11 13 -11 19 0 27 5 27 18 0 13 -2 14 -9 4 -7
-11 -9 -11 -14 2 -4 11 -1 16 11 16 14 0 15 2 2 9 -8 6 -18 7 -22 5 -9 -6 -87
-17 -128 -18 -14 -1 -29 -5 -33 -11 -5 -6 -6 -2 -3 8 3 10 6 23 6 28 0 5 10
10 23 10 19 1 19 2 3 6 -12 3 -26 -3 -38 -18 l-18 -24 9 26 c9 24 7 26 -10 22
-10 -3 -19 -10 -19 -15 0 -5 5 -6 12 -2 7 4 8 3 4 -5 -10 -16 -26 -4 -26 20 0
13 4 18 12 13 6 -4 8 -3 5 3 -4 6 -19 8 -33 5 -22 -4 -26 -2 -21 12 4 9 2 16
-3 16 -6 0 -10 -6 -11 -12 0 -7 -4 -4 -9 7 -5 11 -9 14 -9 7 -1 -10 -4 -10
-16 2 -9 9 -12 22 -8 33 7 17 6 17 -12 -1 -18 -18 -19 -18 -32 0 -7 10 -13 14
-14 8 0 -5 -4 1 -9 13 -6 14 -15 21 -24 17 -7 -3 -46 10 -84 29 -39 20 -73 33
-76 29 -3 -3 -6 0 -6 6 0 6 -8 10 -17 10 -10 0 -34 7 -54 15 -20 9 -39 13 -43
10 -3 -4 -6 0 -6 7 0 7 -3 11 -6 7 -3 -3 -18 -1 -33 5 -34 13 -57 18 -108 22
-23 3 -47 8 -54 11 -18 12 -163 16 -179 5z m163 -17 c-7 -2 -21 -2 -30 0 -10
3 -4 5 12 5 17 0 24 -2 18 -5z m886 -313 c-9 -5 -38 -12 -65 -15 -26 -4 -53
-9 -58 -12 -6 -3 -6 -1 0 6 7 7 33 15 60 17 26 3 50 7 53 9 2 3 9 5 15 5 6 0
4 -5 -5 -10z m-36 -41 c12 -7 33 -12 47 -11 19 0 29 -7 39 -30 9 -19 16 -26
21 -18 5 8 9 8 13 -3 3 -10 14 -13 31 -10 16 3 26 1 26 -6 0 -7 -6 -11 -12
-10 -7 1 -24 1 -38 0 -19 -1 -22 -3 -10 -10 8 -6 18 -7 22 -5 4 3 8 0 8 -5 0
-6 10 -11 23 -10 20 0 21 1 2 8 -17 7 -16 9 9 15 16 4 31 5 34 1 3 -3 -2 -5
-12 -5 -9 0 -14 -5 -11 -10 10 -16 -24 -24 -50 -12 -12 6 -25 8 -28 6 -7 -8 4
-44 14 -44 5 0 6 8 2 18 -5 13 -3 14 7 5 7 -6 9 -16 6 -22 -8 -12 -41 -10 -53
4 -5 4 -2 5 5 1 10 -6 12 0 10 21 -2 15 -7 31 -13 35 -6 5 -5 8 3 8 10 0 10 4
0 20 -7 11 -16 20 -21 20 -4 0 -5 -5 -1 -12 5 -8 2 -9 -12 -3 -10 4 -29 8 -41
8 -17 -1 -19 2 -10 12 8 8 18 10 29 4 23 -12 30 -11 26 3 -4 11 -26 17 -83 19
-21 2 -24 3 -10 7 l20 5 -20 8 c-11 4 -14 8 -7 8 7 1 23 -4 35 -10z m174 -55
c-3 -3 -12 -4 -19 -1 -8 3 -5 6 6 6 11 1 17 -2 13 -5z m79 -22 c13 -8 15 -42
2 -42 -5 0 -8 8 -6 17 2 11 -6 19 -22 24 -20 6 -21 7 -5 8 11 0 25 -3 31 -7z
m-173 -39 c-7 -2 -19 -2 -25 0 -7 3 -2 5 12 5 14 0 19 -2 13 -5z m150 -20 c-7
-2 -19 -2 -25 0 -7 3 -2 5 12 5 14 0 19 -2 13 -5z m47 -14 c0 -5 -8 -9 -17 -8
-11 0 -13 3 -5 6 6 2 9 10 6 15 -4 7 -2 8 4 4 7 -4 12 -11 12 -17z m-93 -11
c-3 -8 -6 -5 -6 6 -1 11 2 17 5 13 3 -3 4 -12 1 -19z m153 8 c0 -3 -4 -8 -10
-11 -5 -3 -10 -1 -10 4 0 6 5 11 10 11 6 0 10 -2 10 -4z m-109 -31 c5 3 6 -1
2 -10 -5 -13 -7 -14 -14 -3 -5 7 -8 20 -8 28 1 11 3 10 6 -3 2 -9 9 -15 14
-12z m39 11 c0 -3 -4 -8 -10 -11 -5 -3 -10 -1 -10 4 0 6 5 11 10 11 6 0 10 -2
10 -4z m-123 -21 c0 -8 -4 -12 -9 -9 -4 3 -8 9 -8 15 0 5 4 9 8 9 5 0 9 -7 9
-15z m27 0 c3 -8 1 -15 -4 -15 -6 0 -10 7 -10 15 0 8 2 15 4 15 2 0 6 -7 10
-15z m182 8 c-10 -11 -36 -12 -36 -2 0 5 10 9 22 9 12 0 18 -3 14 -7z m-66 -7
c0 -3 -4 -8 -10 -11 -5 -3 -10 -1 -10 4 0 6 5 11 10 11 6 0 10 -2 10 -4z m37
-31 c0 -8 -4 -12 -9 -9 -5 3 -6 10 -3 15 9 13 12 11 12 -6z m-71 -20 c0 -14
-4 -25 -8 -25 -6 0 -5 25 1 48 3 10 7 -2 7 -23z m180 -5 c13 0 17 -10 12 -27
-2 -5 -7 -6 -13 -4 -5 2 -15 4 -22 4 -7 0 -12 3 -11 6 2 19 -4 24 -12 11 -7
-12 -9 -10 -7 7 1 17 4 19 14 11 10 -8 13 -6 14 8 1 17 2 17 6 2 2 -10 11 -18
19 -18z m-231 -20 c-3 -5 -11 -10 -16 -10 -6 0 -7 5 -4 10 3 6 11 10 16 10 6
0 7 -4 4 -10z m29 -6 c3 -8 2 -12 -4 -9 -6 3 -10 10 -10 16 0 14 7 11 14 -7z
m173 -29 c0 -8 -4 -12 -9 -9 -5 3 -6 10 -3 15 9 13 12 11 12 -6z m-157 -5 c0
-5 -5 -10 -11 -10 -5 0 -7 5 -4 10 3 6 8 10 11 10 2 0 4 -4 4 -10z m20 -30 c0
-5 -2 -10 -4 -10 -3 0 -8 5 -11 10 -3 6 -1 10 4 10 6 0 11 -4 11 -10z m47 4
c-3 -3 -12 -4 -19 -1 -8 3 -5 6 6 6 11 1 17 -2 13 -5z m-29 -28 c-7 -8 -15
-12 -17 -11 -5 6 10 25 20 25 5 0 4 -6 -3 -14z m103 -4 c-13 -2 -27 0 -32 5
-6 6 3 7 23 4 28 -4 29 -6 9 -9z m93 3 c3 -8 1 -15 -4 -15 -6 0 -10 7 -10 15
0 8 2 15 4 15 2 0 6 -7 10 -15z m31 -15 c3 -5 1 -10 -4 -10 -6 0 -11 5 -11 10
0 6 2 10 4 10 3 0 8 -4 11 -10z m-40 -38 c-3 -3 -11 0 -18 7 -9 10 -8 11 6 5
10 -3 15 -9 12 -12z m-98 2 c-3 -3 -12 -4 -19 -1 -8 3 -5 6 6 6 11 1 17 -2 13
-5z m-53 -19 c18 -13 18 -14 -2 -12 -11 0 -19 4 -16 8 2 4 -2 10 -8 12 -7 3
-8 6 -3 6 6 0 18 -6 29 -14z m123 -22 c0 -8 -4 -10 -12 -3 -7 5 -16 6 -20 2
-5 -4 -5 -2 -2 4 9 15 34 13 34 -3z m30 -40 c0 -9 -4 -10 -14 -2 -7 6 -13 12
-13 14 0 1 6 2 13 2 8 0 14 -6 14 -14z m-127 -17 c0 -2 -7 -7 -16 -10 -8 -3
-12 -2 -9 4 6 10 25 14 25 6z m204 -57 c3 -3 -5 -5 -19 -5 -13 0 -22 3 -19 7
4 8 30 6 38 -2z m26 -75 c0 -8 -19 -13 -24 -6 -3 5 1 9 9 9 8 0 15 -2 15 -3z
m-105 -94 c-3 -5 -12 -10 -18 -10 -7 0 -6 4 3 10 19 12 23 12 15 0z m9 -68 c3
-5 -1 -9 -9 -9 -8 0 -12 4 -9 9 3 4 7 8 9 8 2 0 6 -4 9 -8z m-3164 -46 c0 -2
-11 -6 -25 -8 -13 -3 -22 -1 -19 3 5 9 44 13 44 5z m15 -24 c6 -4 11 -15 11
-24 1 -13 -6 -18 -23 -18 -19 0 -24 4 -19 16 3 9 6 20 6 25 0 11 11 11 25 1z
m-96 -22 c45 0 49 -2 46 -21 -3 -15 0 -19 10 -16 7 3 16 -1 19 -9 3 -9 10 -13
14 -10 5 3 9 -1 9 -8 0 -8 -7 -12 -16 -11 -9 2 -37 7 -63 10 -26 4 -49 14 -52
22 -3 8 -11 11 -16 8 -6 -4 -10 -3 -9 2 4 22 -3 33 -22 33 -11 0 -17 5 -14 10
4 7 12 7 25 0 10 -5 41 -10 69 -10z m-74 -80 c-3 -5 -1 -10 4 -10 6 0 11 5 11
10 0 6 7 10 16 10 14 0 14 -1 0 -16 -9 -8 -22 -14 -29 -11 -6 2 -21 -3 -32
-12 -14 -11 -12 -7 4 12 24 27 38 36 26 17z m123 -33 c12 -3 10 -5 -5 -6 -18
-1 -23 4 -22 22 1 15 3 17 6 5 2 -9 12 -19 21 -21z m45 -11 c6 -16 -1 -26 -17
-26 -6 0 -4 5 4 10 10 6 11 10 3 10 -7 0 -13 5 -13 10 0 15 17 12 23 -4z m-33
-19 c0 -4 -8 -7 -17 -5 -13 2 -19 -5 -22 -22 -3 -23 -4 -23 -11 -5 -4 10 -2
25 4 31 12 13 46 14 46 1z m28 -25 c15 12 16 11 3 -4 -7 -10 -17 -15 -22 -12
-5 3 -9 -7 -10 -23 l-1 -28 -8 25 c-8 24 -8 24 -10 3 -1 -13 -3 -27 -4 -33 0
-5 -6 -14 -13 -21 -10 -10 -14 -7 -22 13 -5 14 -13 28 -18 30 -4 3 -3 3 4 2 6
-2 14 2 17 9 2 7 5 3 5 -7 1 -18 15 -14 17 5 1 5 2 14 3 19 0 6 8 10 16 10 8
0 15 6 16 13 0 9 2 9 6 -1 4 -10 8 -10 21 0z m-122 -18 c-1 -8 -6 -17 -12 -21
-5 -4 -6 -4 -2 1 4 5 3 14 -2 21 -7 8 -5 12 4 12 8 0 13 -6 12 -13z m-32 -2
c2 -4 -5 -9 -17 -9 -17 -2 -19 0 -7 7 18 12 18 12 24 2z m42 -58 c8 3 14 0 14
-5 0 -7 -10 -9 -27 -5 -16 4 -33 7 -40 8 -7 1 -10 5 -7 10 3 4 14 3 25 -3 11
-6 27 -8 35 -5z m-80 -3 c-8 -12 -46 -21 -46 -11 0 5 10 11 23 13 12 2 23 5
25 6 2 0 1 -3 -2 -8z m191 -21 c1 -13 -4 -20 -15 -20 -15 0 -15 2 -2 10 8 5
11 10 7 10 -5 0 -5 5 -2 10 9 14 11 13 12 -10z m-215 -14 c21 4 21 4 3 -4 -22
-10 -57 6 -48 21 3 5 10 3 14 -6 5 -9 18 -13 31 -11z m165 -10 c2 -2 0 -7 -6
-11 -6 -3 -11 -2 -11 4 0 5 -8 8 -17 6 -10 -1 -17 -8 -15 -15 1 -6 -2 -9 -8
-5 -17 11 8 34 32 30 11 -3 23 -6 25 -9z m-147 -16 c0 -5 -2 -10 -4 -10 -3 0
-8 5 -11 10 -3 6 -1 10 4 10 6 0 11 -4 11 -10z m38 3 c-10 -2 -18 -8 -18 -13
0 -5 8 -7 18 -4 14 5 14 4 2 -4 -17 -13 -30 -6 -30 14 0 8 9 14 23 13 16 -1
18 -2 5 -6z m-34 -31 c3 -5 -1 -9 -9 -9 -8 0 -12 4 -9 9 3 4 7 8 9 8 2 0 6 -4
9 -8z m203 2 c-3 -3 -12 -4 -19 -1 -8 3 -5 6 6 6 11 1 17 -2 13 -5z m-99 -29
c-3 -3 -9 2 -12 12 -6 14 -5 15 5 6 7 -7 10 -15 7 -18z m-77 6 c-8 -5 -10 -14
-6 -22 6 -11 5 -11 -5 -2 -14 12 -6 33 13 33 8 0 7 -3 -2 -9z m3306 3 c-3 -3
-12 -4 -19 -1 -8 3 -5 6 6 6 11 1 17 -2 13 -5z m-3251 -13 c-3 -5 -16 -11 -28
-14 -22 -6 -22 -5 -4 8 22 17 40 20 32 6z m3231 -23 c-3 -8 -6 -5 -6 6 -1 11
2 17 5 13 3 -3 4 -12 1 -19z m-3150 -30 c-3 -8 -6 -5 -6 6 -1 11 2 17 5 13 3
-3 4 -12 1 -19z m28 13 c3 -5 2 -12 -3 -15 -5 -3 -9 1 -9 9 0 17 3 19 12 6z
m-205 -5 c0 -2 -9 -6 -20 -9 -11 -3 -18 -1 -14 4 5 9 34 13 34 5z m70 -10 c0
-2 -11 -6 -25 -8 -13 -3 -22 -1 -19 3 5 9 44 13 44 5z m-63 -12 c-3 -3 -12 -4
-19 -1 -8 3 -5 6 6 6 11 1 17 -2 13 -5z m128 -4 c3 -5 1 -10 -4 -10 -6 0 -11
5 -11 10 0 6 2 10 4 10 3 0 8 -4 11 -10z m-92 -17 c-7 -2 -21 -2 -30 0 -10 3
-4 5 12 5 17 0 24 -2 18 -5z m-28 -23 c-3 -5 -14 -10 -23 -9 -14 0 -13 2 3 9
27 11 27 11 20 0z m45 6 c0 -2 -7 -6 -15 -10 -8 -3 -15 -1 -15 4 0 6 7 10 15
10 8 0 15 -2 15 -4z m-10 -120 c0 -2 -7 -7 -16 -10 -8 -3 -12 -2 -9 4 6 10 25
14 25 6z m55 -15 c-9 -8 -36 -10 -30 -2 2 4 11 8 20 8 8 0 13 -3 10 -6z m3006
-484 c-10 -9 -11 -8 -5 6 3 10 9 15 12 12 3 -3 0 -11 -7 -18z m-2276 -437 c3
-6 -1 -7 -9 -4 -18 7 -21 14 -7 14 6 0 13 -4 16 -10z m1825 -34 c0 -2 -8 -10
-17 -17 -16 -13 -17 -12 -4 4 13 16 21 21 21 13z m-490 -230 c0 -2 -7 -7 -16
-10 -8 -3 -12 -2 -9 4 6 10 25 14 25 6z m-725 -16 c3 -5 1 -10 -4 -10 -6 0
-11 5 -11 10 0 6 2 10 4 10 3 0 8 -4 11 -10z m655 -4 c0 -2 -7 -7 -16 -10 -8
-3 -12 -2 -9 4 6 10 25 14 25 6z m-93 -22 c-3 -3 -12 -4 -19 -1 -8 3 -5 6 6 6
11 1 17 -2 13 -5z m-290 -10 c-3 -3 -12 -4 -19 -1 -8 3 -5 6 6 6 11 1 17 -2
13 -5z m123 -5 c0 6 5 11 11 11 8 0 8 -4 -1 -14 -12 -16 -40 -11 -40 6 0 6 6
5 15 -2 10 -9 15 -9 15 -1z m73 4 c-7 -2 -21 -2 -30 0 -10 3 -4 5 12 5 17 0
24 -2 18 -5z"/>
<path d="M916 2895 c-3 -8 -1 -15 4 -15 6 0 10 7 10 15 0 8 -2 15 -4 15 -2 0
-6 -7 -10 -15z"/>
<path d="M804 2861 c16 -16 119 -45 111 -31 -3 4 -19 11 -37 15 -29 6 -31 8
-13 15 24 10 22 11 -33 15 -40 2 -42 1 -28 -14z m31 -1 c3 -6 -1 -7 -9 -4 -18
7 -21 14 -7 14 6 0 13 -4 16 -10z"/>
<path d="M850 2639 c0 -5 5 -7 10 -4 6 3 10 8 10 11 0 2 -4 4 -10 4 -5 0 -10
-5 -10 -11z"/>
<path d="M2328 4143 c12 -2 32 -2 45 0 12 2 2 4 -23 4 -25 0 -35 -2 -22 -4z"/>
<path d="M2248 4133 c6 -2 18 -2 25 0 6 3 1 5 -13 5 -14 0 -19 -2 -12 -5z"/>
<path d="M2198 4123 c7 -3 16 -2 19 1 4 3 -2 6 -13 5 -11 0 -14 -3 -6 -6z"/>
<path d="M2158 4113 c7 -3 16 -2 19 1 4 3 -2 6 -13 5 -11 0 -14 -3 -6 -6z"/>
<path d="M2118 4103 c7 -3 16 -2 19 1 4 3 -2 6 -13 5 -11 0 -14 -3 -6 -6z"/>
<path d="M2045 4090 c-25 -11 1 -11 35 0 20 6 21 8 5 8 -11 0 -29 -3 -40 -8z"/>
<path d="M1998 4073 c7 -3 16 -2 19 1 4 3 -2 6 -13 5 -11 0 -14 -3 -6 -6z"/>
<path d="M1785 3980 c-3 -6 1 -7 9 -4 18 7 21 14 7 14 -6 0 -13 -4 -16 -10z"/>
<path d="M1725 3950 c4 -6 11 -8 16 -5 14 9 11 15 -7 15 -8 0 -12 -5 -9 -10z"/>
<path d="M3090 3956 c0 -2 7 -7 16 -10 8 -3 12 -2 9 4 -6 10 -25 14 -25 6z"/>
<path d="M1690 3940 c-12 -7 -10 -9 7 -7 12 0 19 5 17 9 -6 10 -6 10 -24 -2z"/>
<path d="M3540 3946 c0 -2 7 -7 16 -10 8 -3 12 -2 9 4 -6 10 -25 14 -25 6z"/>
<path d="M3217 3886 c293 -173 496 -391 604 -652 18 -43 34 -73 36 -67 11 32
-73 197 -174 344 -83 120 -261 284 -372 342 -25 13 -72 38 -103 55 -95 53 -88
36 9 -22z"/>
<path d="M3483 3926 c-9 -11 -7 -16 11 -24 17 -8 23 -7 23 3 0 7 -6 11 -14 8
-9 -4 -11 0 -7 11 7 19 3 20 -13 2z"/>
<path d="M1641 3916 c-23 -13 -20 -23 8 -22 8 1 15 9 17 19 1 9 2 17 1 17 -1
-1 -13 -7 -26 -14z"/>
<path d="M3689 3928 c-6 -20 -5 -37 1 -33 5 3 10 0 12 -7 3 -8 7 -6 11 5 4 10
2 16 -6 14 -7 -1 -11 4 -9 11 2 10 -6 19 -9 10z"/>
<path d="M3545 3900 c-16 -7 -17 -9 -3 -9 9 -1 20 4 23 9 7 11 7 11 -20 0z"/>
<path d="M3641 3883 c-10 -26 -10 -27 4 -9 8 11 15 23 15 28 0 15 -7 8 -19
-19z"/>
<path d="M3596 3862 c-3 -5 1 -9 9 -9 8 0 15 4 15 9 0 4 -4 8 -9 8 -6 0 -12
-4 -15 -8z"/>
<path d="M3536 3851 c-3 -4 6 -6 19 -3 14 2 25 6 25 8 0 8 -39 4 -44 -5z"/>
<path d="M3810 3846 c0 -2 7 -7 16 -10 8 -3 12 -2 9 4 -6 10 -25 14 -25 6z"/>
<path d="M1608 3793 c-9 -2 -19 -11 -22 -19 -4 -11 -1 -11 19 2 14 9 25 18 25
20 0 2 -1 3 -2 3 -2 -1 -10 -3 -20 -6z"/>
<path d="M1475 3687 c-52 -43 -113 -104 -130 -129 -5 -7 -19 -25 -30 -38 -10
-14 34 27 98 90 64 63 117 116 117 117 0 6 -7 1 -55 -40z"/>
<path d="M3930 3669 c0 -5 5 -7 10 -4 6 3 10 8 10 11 0 2 -4 4 -10 4 -5 0 -10
-5 -10 -11z"/>
<path d="M3970 3642 c0 -5 7 -9 15 -9 8 0 12 4 9 9 -3 4 -9 8 -15 8 -5 0 -9
-4 -9 -8z"/>
<path d="M3980 3609 c0 -5 11 -9 25 -9 14 0 25 2 25 4 0 2 -11 6 -25 8 -14 3
-25 1 -25 -3z"/>
<path d="M3359 3548 c7 -10 19 -18 26 -18 23 0 9 -34 -16 -41 -17 -5 -19 -7
-6 -8 10 -1 16 -5 12 -10 -3 -6 3 -8 14 -6 20 4 49 -21 37 -32 -3 -3 -6 -2 -6
4 0 5 -16 10 -35 10 -25 0 -34 -4 -31 -13 3 -7 -1 -15 -9 -18 -9 -3 -12 1 -10
15 4 21 -32 62 -47 53 -4 -3 -6 -10 -2 -15 3 -5 9 -7 14 -4 5 3 11 1 15 -5 3
-5 0 -10 -7 -10 -10 0 -10 -2 -1 -8 7 -4 9 -13 4 -21 -6 -10 -15 -8 -42 8 -25
15 -49 21 -89 19 l-55 -1 64 -6 c60 -6 66 -9 107 -55 24 -26 42 -52 39 -56 -3
-5 0 -12 5 -15 7 -5 5 -12 -7 -22 -17 -13 -17 -14 0 -9 9 3 17 1 17 -4 0 -15
-28 -12 -53 5 -20 13 -26 13 -51 0 -25 -13 -27 -13 -22 0 9 25 -8 17 -20 -10
l-12 -24 37 15 c20 8 38 16 41 16 18 2 30 -3 30 -13 0 -6 -8 -8 -19 -4 -11 3
-22 1 -26 -5 -3 -6 -11 -8 -16 -5 -5 4 -9 1 -9 -4 0 -14 -63 -14 -76 -1 -8 8
-15 6 -23 -4 -10 -12 -9 -14 8 -9 33 8 25 -6 -11 -22 -26 -11 -28 -14 -12 -15
12 0 27 7 34 15 7 9 28 15 49 14 l36 -1 -32 -8 c-17 -4 -39 -15 -48 -24 -9 -9
-22 -13 -28 -9 -6 4 -8 0 -4 -10 3 -10 2 -17 -2 -17 -5 0 -12 6 -14 13 -4 9
-6 9 -6 -1 -1 -8 -6 -10 -13 -6 -7 4 -10 4 -6 -1 4 -4 3 -13 -2 -20 -7 -8 -5
-12 5 -12 8 0 15 4 15 9 0 4 11 7 24 6 19 -2 22 -5 14 -15 -13 -16 -22 -17
-12 -2 4 7 1 10 -7 7 -8 -3 -14 -10 -14 -15 0 -6 -4 -15 -9 -20 -5 -5 -6 -2
-1 6 6 11 3 13 -13 9 -14 -4 -26 0 -33 10 -9 15 -10 14 -4 -3 4 -11 8 -27 10
-35 1 -8 8 -14 14 -12 6 1 10 -1 9 -5 -2 -5 1 -8 7 -8 5 0 9 6 7 13 -2 6 5 12
15 12 15 0 16 -2 3 -11 -12 -9 -11 -10 8 -6 12 3 22 3 22 1 0 -6 -53 -28 -62
-26 -5 1 -8 -3 -8 -9 0 -5 -5 -7 -11 -3 -7 4 -8 9 -1 13 6 4 4 11 -4 19 -12
11 -14 10 -11 -5 4 -27 16 -43 41 -54 17 -8 14 -9 -14 -4 -31 4 -33 3 -18 -9
12 -9 31 -11 63 -6 25 4 45 3 45 -2 0 -4 -11 -8 -25 -8 -17 0 -25 -6 -25 -17
0 -11 -3 -14 -8 -7 -4 5 -21 16 -38 23 -30 12 -31 15 -30 62 1 27 -1 49 -4 49
-5 0 -7 33 -9 170 -1 46 -5 70 -10 65 -6 -6 -11 -181 -13 -422 -2 -226 -6
-409 -10 -406 -5 2 -8 18 -8 35 0 25 -3 29 -20 25 -11 -3 -23 -1 -26 4 -3 5 6
9 20 9 21 0 25 4 24 30 -1 20 -5 29 -13 26 -6 -2 -18 0 -26 5 -11 7 -9 9 8 9
25 0 39 16 21 24 -10 5 -10 7 0 12 17 8 15 27 -3 20 -8 -3 -15 -1 -15 4 0 6 6
10 14 10 10 0 13 12 12 45 -1 41 -3 45 -26 43 -14 -1 -58 2 -99 7 -53 5 -72 4
-67 -4 4 -6 25 -11 47 -11 27 0 39 -4 39 -14 0 -11 -8 -12 -35 -6 -35 8 -65
-6 -65 -30 0 -12 57 -92 140 -199 36 -45 72 -93 80 -106 8 -13 22 -26 32 -28
10 -3 18 -9 18 -15 0 -12 -48 -13 -56 -1 -3 5 3 6 13 3 16 -5 16 -4 2 8 -9 7
-17 16 -17 21 -1 4 -5 7 -9 6 -5 -1 -7 -5 -5 -11 1 -5 -2 -7 -8 -3 -8 5 -7 11
1 21 10 12 8 18 -7 33 -11 9 -25 16 -32 15 -7 -1 -8 0 -3 2 14 7 -17 54 -35
54 -7 0 -16 4 -19 10 -4 6 1 7 11 3 12 -4 15 -3 10 5 -4 7 -14 12 -22 12 -8 0
-12 5 -9 10 3 6 -1 10 -9 10 -9 0 -16 5 -16 10 0 6 -5 10 -11 10 -6 0 -9 -8
-7 -18 3 -11 0 -19 -7 -19 -10 0 -11 7 -4 24 5 13 5 23 0 23 -4 0 -8 7 -8 15
0 13 4 12 20 -2 20 -18 20 -18 4 7 -10 14 -23 25 -30 25 -6 1 -11 7 -9 15 3
10 -3 9 -17 -4 -12 -11 -24 -16 -28 -13 -3 4 0 7 7 7 9 0 7 5 -6 16 -18 15
-18 15 3 5 15 -8 22 -7 26 2 3 8 -4 12 -22 11 -21 -1 -26 -6 -24 -25 1 -13 -1
-18 -3 -12 -4 10 -11 10 -25 2 -11 -6 -25 -8 -32 -5 -7 2 -4 5 6 5 10 1 15 5
12 11 -4 6 -17 4 -35 -5 -51 -26 -80 -35 -80 -25 0 6 7 10 15 10 27 0 96 40
89 52 -4 5 0 15 7 20 11 8 10 9 -3 4 -10 -3 -18 -2 -18 3 0 4 -15 6 -32 4 -27
-3 -29 -1 -13 6 18 9 17 10 -8 10 -26 1 -27 2 -13 17 20 20 21 30 1 14 -10 -9
-15 -9 -15 -1 0 6 -8 11 -19 11 -10 0 -24 7 -31 15 -10 12 -9 15 6 15 16 0 14
3 -6 14 -22 11 -27 11 -38 -3 -11 -14 -14 -14 -22 -1 -9 13 -10 13 -10 0 0
-13 -1 -13 -10 0 -6 9 -5 17 2 21 5 3 8 15 6 25 -4 24 -34 25 -30 2 2 -11 -6
-20 -22 -24 -17 -4 -23 -11 -19 -22 4 -14 3 -14 -5 -3 -5 7 -16 10 -23 7 -8
-4 -7 -2 2 6 9 7 14 20 11 28 -5 13 -3 13 13 0 17 -13 18 -13 10 0 -14 22 -15
40 -2 40 6 0 4 7 -5 16 -12 12 -20 14 -36 5 -15 -8 -23 -6 -37 9 -22 24 -31
25 -39 4 -5 -14 -4 -15 8 -5 11 9 15 8 20 -4 3 -9 2 -14 -2 -11 -4 2 -14 0
-22 -5 -17 -11 53 -6 83 6 9 4 17 3 17 -3 0 -11 -32 -21 -75 -23 -17 -1 -22
-3 -12 -6 16 -4 25 -23 10 -23 -12 1 -59 29 -49 30 5 0 3 6 -3 14 -9 11 -9 15
1 20 7 3 2 3 -12 0 -46 -12 -71 -46 -27 -38 20 4 21 4 2 -5 -21 -10 -17 -12
35 -15 14 -1 34 -7 45 -14 17 -9 14 -10 -20 -7 -31 4 -34 3 -15 -4 26 -8 28
-8 -122 -25 -21 -2 -38 0 -38 5 0 5 16 7 35 5 33 -4 40 1 36 26 0 5 2 7 7 5 4
-1 7 2 7 8 0 5 -13 11 -30 12 -26 2 -27 1 -10 -7 17 -9 15 -9 -9 -5 -31 6 -96
-11 -96 -26 0 -5 16 -2 37 6 20 8 39 13 42 10 3 -3 -4 -8 -16 -11 -16 -4 -20
-12 -17 -29 3 -17 -1 -25 -17 -30 -24 -8 -34 -1 -24 15 6 9 9 9 15 0 5 -9 9
-9 14 -1 4 6 1 11 -6 11 -9 0 -9 3 2 10 12 8 12 10 1 10 -16 0 -40 -29 -41
-49 0 -9 9 -12 30 -9 35 5 39 1 8 -11 l-22 -8 27 -26 c14 -15 22 -27 18 -27
-4 0 -32 27 -60 60 -77 89 -85 69 -18 -43 15 -25 12 -207 -4 -207 -4 0 -6 44
-4 98 3 84 0 101 -16 122 -17 23 -19 23 -19 5 0 -16 -2 -17 -10 -5 -5 9 -5 19
2 27 8 11 7 12 -7 7 -13 -5 -16 -4 -11 4 4 7 2 12 -3 12 -6 0 -11 5 -11 11 0
5 4 8 9 5 5 -3 11 3 14 14 7 25 -1 30 -56 32 -33 2 -41 5 -33 14 7 8 15 9 21
3 13 -13 35 -11 35 4 0 23 -21 37 -42 26 -12 -6 -18 -6 -18 1 0 5 7 10 15 10
8 0 15 5 15 10 0 7 -6 7 -20 0 -14 -8 -20 -8 -20 0 0 6 -4 8 -10 5 -5 -3 -10
-2 -10 4 0 5 9 13 20 16 11 3 20 11 20 16 0 6 -7 6 -19 -1 -11 -5 -23 -10 -28
-10 -4 1 3 7 17 14 14 8 28 12 32 10 5 -3 8 2 8 10 0 10 -6 13 -15 10 -8 -4
-15 -1 -15 5 0 6 -8 11 -17 12 -12 0 -13 2 -5 6 7 3 19 0 26 -6 11 -9 18 -8
30 5 16 15 17 15 10 -11 -6 -23 -4 -26 12 -23 10 2 20 12 22 22 3 11 0 16 -7
12 -6 -4 -11 -2 -11 3 0 6 5 11 11 11 5 0 7 5 4 10 -3 6 -4 10 0 10 3 0 10
-10 16 -22 9 -22 9 -21 6 4 -2 15 0 25 4 22 5 -3 10 1 10 8 1 7 2 19 3 27 0 8
7 15 14 17 7 1 8 0 2 -3 -5 -2 -10 -9 -10 -14 0 -6 5 -7 10 -4 6 3 10 1 10 -4
0 -6 9 -11 21 -11 11 0 17 5 14 10 -4 6 -11 7 -17 4 -7 -4 -8 -2 -4 4 4 6 13
9 21 5 8 -3 15 0 15 5 0 6 -8 9 -17 8 -10 -2 -27 6 -38 17 -13 13 -15 18 -5
15 8 -3 26 -8 40 -11 22 -6 22 -5 -2 5 -16 7 -28 15 -28 20 0 4 -12 9 -27 9
-25 2 -24 2 7 9 32 7 33 7 7 9 -16 0 -26 5 -22 11 3 6 -1 10 -9 10 -22 0 -29
19 -14 38 12 15 11 16 -5 3 -10 -8 -16 -20 -13 -28 7 -16 -6 -17 -22 -1 -9 9
-12 9 -12 0 0 -8 -9 -10 -24 -6 -14 3 -33 1 -43 -5 -14 -8 -8 -9 29 -7 26 1
53 -1 60 -6 7 -4 -24 -8 -69 -8 -72 0 -82 -2 -76 -16 5 -13 2 -15 -17 -9 -20
6 -21 5 -9 -8 8 -8 18 -12 23 -9 14 8 55 9 67 1 5 -3 -7 -6 -27 -7 -20 -1 -43
-7 -52 -14 -12 -10 -14 -10 -8 0 4 7 2 12 -7 12 -10 0 -13 -7 -10 -20 3 -11 9
-18 12 -15 4 2 8 -2 8 -10 0 -12 -4 -12 -21 2 -12 10 -18 14 -14 9 4 -5 2 -16
-5 -25 -11 -14 -10 -14 6 -2 15 12 17 11 17 -3 0 -10 5 -14 10 -11 6 3 10 1
10 -4 0 -6 -7 -11 -15 -11 -8 0 -15 -5 -15 -11 0 -5 4 -8 9 -4 5 3 13 0 17 -6
5 -8 -1 -10 -20 -7 -14 3 -26 1 -26 -5 0 -5 15 -7 35 -4 20 3 33 2 30 -3 -3
-4 5 -6 17 -3 18 4 16 0 -10 -17 -18 -13 -36 -19 -40 -16 -3 4 -1 11 6 15 8 5
-3 8 -25 8 -21 0 -29 -2 -18 -4 26 -7 37 -25 22 -35 -19 -12 -30 -9 -19 5 8
10 6 13 -7 13 -12 0 -17 -5 -13 -15 3 -9 1 -12 -6 -7 -6 3 -13 2 -16 -3 -4 -5
2 -12 11 -14 14 -4 13 -5 -4 -6 -25 -1 -30 18 -11 37 9 9 9 12 -1 12 -7 0 -11
6 -8 15 4 8 2 17 -3 20 -6 4 -14 -548 -12 -907 0 -49 -2 -57 -21 -62 -19 -4
-20 -3 -6 7 23 17 14 78 -10 70 -13 -4 -14 -3 -1 5 8 6 17 9 20 7 9 -5 3 82
-6 96 -4 8 -3 9 5 5 11 -7 11 2 1 49 -1 6 -1 12 0 15 7 18 4 160 -4 160 -6 0
-5 5 1 11 15 15 4 49 -16 49 -14 0 -14 -2 -1 -11 13 -10 13 -10 0 -6 -33 10
-64 17 -52 11 22 -10 13 -21 -15 -17 -16 2 -5 -5 22 -14 l50 -18 -35 -6 c-19
-3 -43 -2 -52 3 -9 4 -19 4 -22 0 -5 -9 11 -13 57 -13 45 0 30 -16 -25 -26
l-53 -10 62 1 c33 1 59 4 56 9 -2 4 0 7 6 7 5 0 9 -8 8 -18 -1 -18 -31 -24
-54 -9 -14 9 -27 -8 -18 -23 3 -5 1 -10 -4 -10 -6 0 -11 8 -11 18 0 14 -2 14
-9 3 -13 -20 9 -40 37 -35 15 3 21 1 17 -6 -3 -5 -1 -10 4 -10 18 0 12 19 -9
30 -11 6 -20 16 -19 23 0 9 2 9 6 0 2 -7 14 -13 26 -13 11 0 17 -3 14 -7 -4
-3 1 -12 11 -20 9 -8 12 -12 5 -9 -6 4 -14 2 -18 -3 -3 -6 -21 -8 -40 -7 -19
2 -34 1 -33 -3 2 -20 -4 -31 -19 -32 -10 -1 -3 -6 15 -12 21 -6 31 -15 28 -24
-3 -7 1 -13 9 -13 8 0 15 -4 15 -10 0 -5 -10 -8 -22 -6 -13 2 -22 9 -21 15 2
5 -3 8 -11 5 -10 -4 -8 -11 11 -30 13 -13 22 -28 18 -33 -3 -5 0 -12 5 -14 6
-3 5 -4 -2 -3 -7 2 -14 8 -14 14 -1 7 -2 17 -3 22 0 6 -9 10 -18 10 -17 -1
-17 -1 -1 -10 10 -6 15 -19 13 -30 -2 -11 1 -20 6 -20 13 0 -11 -25 -31 -33
-11 -4 -10 -6 5 -7 l20 -1 -20 -9 c-11 -5 -14 -9 -7 -9 7 -1 21 -8 30 -17 15
-15 13 -16 -19 -10 -32 6 -32 5 -9 -6 14 -6 30 -10 35 -8 27 7 55 7 60 0 3 -5
-4 -7 -16 -5 -25 5 -59 -11 -59 -27 0 -6 7 -5 18 3 15 13 16 12 3 -4 -13 -16
-12 -17 17 -12 18 3 32 1 32 -4 0 -6 -9 -8 -20 -6 -11 2 -22 0 -25 -6 -4 -5
-11 -9 -16 -9 -6 0 -8 4 -5 9 3 5 -1 14 -10 21 -12 11 -17 11 -27 0 -10 -10
-9 -12 6 -7 21 8 23 -9 1 -17 -13 -5 -14 -9 -4 -21 10 -12 10 -15 0 -15 -8 0
-10 -3 -6 -7 4 -5 14 0 21 10 7 10 17 17 21 16 5 -1 17 1 26 5 9 4 25 6 35 3
12 -3 8 -5 -10 -6 -16 0 -26 -5 -23 -9 2 -4 -5 -9 -17 -9 -12 -1 -27 -9 -33
-17 -6 -9 -14 -13 -17 -10 -8 9 -3 -19 7 -35 6 -10 5 -12 -2 -7 -19 11 -14 -5
6 -21 9 -8 11 -12 5 -8 -22 10 -15 -26 16 -91 50 -106 157 -192 261 -209 60
-10 169 -8 184 4 6 5 14 9 19 9 26 1 67 15 67 24 0 6 3 8 6 5 10 -10 45 35 39
50 -2 8 0 11 5 8 5 -3 20 5 32 17 13 13 27 21 33 20 5 -2 7 0 3 4 -4 4 0 13
10 21 9 8 11 11 3 7 -9 -4 -12 -2 -9 7 3 8 10 13 16 12 5 -1 8 7 5 17 -3 11
-1 20 4 20 4 0 8 18 8 39 0 22 -3 37 -8 34 -15 -9 -3 31 13 44 13 10 11 13
-10 22 -20 8 -21 10 -6 10 20 1 20 1 0 16 -18 13 -18 14 6 9 18 -4 21 -3 11 4
-11 8 -11 10 0 15 10 4 10 6 2 6 -7 1 -13 8 -13 17 0 8 -4 13 -8 10 -5 -3 -9
1 -9 9 0 8 4 12 9 9 5 -3 7 6 4 20 -3 19 0 26 12 27 11 0 12 3 5 6 -20 7 -15
23 5 16 14 -5 13 -3 -3 10 -11 9 -15 17 -8 17 7 0 10 7 7 15 -4 9 -1 15 7 15
8 0 5 6 -7 15 -19 15 -19 15 1 8 18 -6 18 -5 6 10 -12 15 -11 17 5 18 14 1 13
3 -6 9 -16 5 -19 8 -8 9 9 1 20 6 24 13 4 6 3 8 -2 5 -6 -3 -16 -1 -24 5 -13
8 -13 9 1 5 9 -3 22 -1 30 4 10 6 10 9 2 9 -7 0 -13 5 -13 11 0 5 5 7 10 4 6
-3 10 -2 10 4 0 5 -4 12 -9 15 -10 6 64 86 79 86 5 0 30 -27 55 -61 26 -33 50
-58 52 -55 3 3 0 12 -7 21 -7 8 -9 22 -6 31 4 12 2 15 -9 10 -8 -3 -16 0 -17
7 0 7 -2 19 -2 27 -1 8 -7 14 -14 13 -7 -2 -12 1 -12 6 0 16 29 33 47 28 14
-4 13 -5 -4 -6 -13 0 -23 -6 -23 -12 0 -5 5 -7 12 -3 6 4 8 3 5 -3 -4 -6 5
-15 19 -22 31 -14 54 -14 54 -1 0 5 -6 7 -14 4 -18 -7 -30 12 -15 22 8 4 9 3
5 -5 -12 -19 47 -4 61 15 11 15 12 14 10 -4 0 -11 -4 -20 -7 -20 -24 2 -31 -4
-25 -24 5 -18 4 -20 -4 -8 -6 9 -11 10 -11 3 0 -12 -24 -12 -36 0 -4 4 -12 7
-18 7 -5 0 7 -17 27 -38 30 -31 35 -40 25 -52 -11 -12 -10 -12 3 -2 9 6 20 8
25 4 4 -4 2 2 -6 13 -8 11 -22 25 -30 32 -9 8 -11 12 -3 13 6 0 19 -7 27 -16
9 -9 16 -11 16 -4 0 6 5 8 10 5 6 -3 10 -2 10 4 0 5 -6 12 -12 14 -10 4 -10 6
0 6 17 1 29 -32 14 -37 -15 -5 -16 -42 -1 -42 5 0 8 4 4 9 -3 5 -1 12 4 15 4
3 8 -4 7 -16 -1 -21 29 -35 39 -18 3 5 14 7 25 5 11 -2 20 1 20 7 0 7 7 3 15
-8 8 -10 15 -17 15 -14 1 3 3 13 5 23 2 11 6 22 9 25 4 3 4 -5 2 -19 -2 -13
-5 -27 -5 -31 -1 -5 -8 -8 -17 -8 -9 0 -12 -5 -8 -12 5 -8 2 -9 -10 -5 -10 4
-20 7 -24 7 -3 0 3 7 14 15 18 14 18 14 -3 8 -18 -4 -23 -12 -23 -37 0 -17 4
-38 10 -46 5 -9 5 -19 -2 -27 -8 -11 -7 -12 6 -7 11 4 15 13 11 22 -3 9 -3 14
0 10 3 -3 21 -2 40 2 20 5 33 4 29 -1 -3 -5 1 -9 8 -9 9 0 9 -3 -2 -10 -8 -5
-19 -10 -25 -10 -5 0 -3 5 5 10 11 8 9 9 -12 8 -16 -1 -28 -5 -28 -9 0 -13 31
-19 68 -14 28 3 32 2 17 -4 -11 -5 -33 -10 -48 -10 -18 -1 -26 -5 -21 -12 3
-6 15 -9 25 -6 11 3 17 1 13 -4 -3 -5 6 -9 20 -9 14 0 28 5 31 10 3 6 12 10
18 9 9 0 8 -2 -1 -6 -18 -7 -4 -23 16 -17 15 5 15 4 -1 -6 -9 -6 -15 -16 -11
-21 3 -6 -3 -13 -15 -16 -12 -3 -21 -10 -21 -15 0 -5 -4 -7 -8 -4 -4 2 -9 -4
-9 -15 -2 -20 31 -27 42 -9 3 5 11 10 16 10 6 0 -3 -12 -18 -26 -15 -14 -22
-22 -14 -18 11 5 13 3 8 -10 -4 -11 -3 -15 4 -11 6 4 8 13 5 20 -2 7 1 16 9
19 14 5 14 0 -1 -39 -12 -33 -13 -45 -3 -39 13 7 49 -5 49 -17 0 -6 -7 -6 -19
1 -14 7 -22 7 -27 -2 -4 -6 -3 -8 4 -4 6 3 13 2 17 -4 3 -5 0 -10 -7 -10 -10
0 -10 -2 0 -9 8 -4 13 -12 11 -16 -3 -10 23 -45 34 -45 4 0 5 5 1 12 -4 6 -3
8 3 5 6 -4 10 -22 9 -41 -1 -19 2 -32 5 -30 4 2 9 -3 13 -11 3 -8 10 -15 16
-15 6 0 8 5 4 12 -4 7 -3 8 4 4 6 -4 9 -13 6 -21 -4 -8 -10 -12 -16 -9 -5 3
-4 -3 4 -15 7 -12 17 -21 22 -21 4 0 2 8 -5 18 -13 15 -12 16 3 4 10 -8 16
-19 15 -25 -2 -14 103 -72 158 -88 58 -17 194 -14 251 6 82 27 146 72 195 138
45 60 60 91 64 132 1 11 5 37 10 58 5 24 3 48 -4 63 -6 13 -6 24 -1 24 5 0 8
9 7 20 -1 11 -6 20 -11 20 -6 0 -5 5 2 12 14 14 16 32 4 24 -5 -3 -9 1 -9 9 0
8 3 15 7 15 3 0 6 9 6 20 0 11 -5 20 -11 20 -5 0 -3 5 5 10 11 7 11 10 2 10
-9 0 -10 5 -3 19 8 14 7 20 -4 25 -8 3 -15 11 -15 18 0 9 3 9 10 -2 7 -12 9
-10 7 7 0 12 -6 19 -12 17 -5 -3 -1 2 9 10 16 13 17 16 4 16 -8 0 -22 8 -29
17 -8 9 -9 14 -3 10 6 -4 20 3 30 15 11 12 13 18 7 14 -7 -4 -13 -2 -13 3 0 6
5 11 12 11 6 0 3 7 -8 16 -10 8 -14 13 -8 10 12 -6 12 23 -1 43 -6 11 -4 13
10 8 17 -7 17 -6 0 19 -10 15 -12 23 -4 19 9 -6 11 -4 6 8 -3 9 -1 18 6 21 7
2 3 5 -8 6 l-20 1 20 15 c19 16 19 16 -5 9 l-25 -7 24 17 c21 16 21 19 7 27
-9 5 -16 14 -16 21 0 7 4 6 10 -3 6 -9 10 -10 10 -3 0 6 -5 15 -10 18 -6 4 -7
12 -3 18 4 7 8 64 8 127 1 63 4 120 8 126 8 14 -26 14 -36 0 -6 -7 -7 -5 -4 6
3 9 3 19 -1 21 -4 2 -1 2 6 1 6 -2 12 1 12 6 0 9 -15 14 -33 11 -5 -1 -6 3 -2
8 3 6 13 7 23 4 15 -6 16 -5 2 13 -14 17 -14 18 2 6 10 -8 17 -17 16 -20 -2
-19 3 -32 13 -32 6 0 7 5 2 13 -13 21 -13 47 0 47 6 0 4 5 -6 11 -9 5 -21 8
-25 5 -4 -2 -14 0 -22 5 -10 6 -2 8 25 5 l40 -4 -40 18 -40 19 35 -6 c25 -4
32 -2 25 5 -5 6 -26 14 -45 17 -19 3 -37 9 -40 12 -3 3 4 4 15 2 11 -2 26 0
34 5 10 6 12 5 7 -2 -5 -8 1 -11 18 -10 13 1 22 6 20 10 -3 5 -9 6 -14 3 -19
-11 -15 21 4 38 12 10 15 16 9 12 -7 -3 -13 -3 -14 2 -6 52 -5 64 8 59 7 -3
13 -1 13 4 0 9 -14 14 -32 11 -5 0 -8 3 -8 9 0 5 9 10 20 10 11 0 20 5 20 11
0 6 -8 8 -17 5 -16 -5 -16 -4 -3 6 17 15 26 58 12 58 -5 0 -9 -8 -8 -17 1 -12
-7 -19 -24 -21 -19 -2 -22 -1 -10 7 8 5 18 7 23 4 5 -3 6 4 2 16 -5 15 -2 21
9 21 11 0 16 9 16 30 0 17 -4 30 -9 30 -5 0 -8 -10 -6 -23 4 -19 0 -23 -20
-23 -13 0 -21 4 -19 8 3 5 9 6 14 3 4 -3 10 1 13 9 4 9 0 12 -13 9 -10 -3 -21
0 -24 6 -4 6 1 8 13 6 11 -2 26 4 33 13 10 12 10 14 1 8 -8 -4 -13 -2 -13 5 0
8 -4 8 -12 1 -7 -5 -23 -8 -35 -6 -12 2 -25 -1 -29 -8 -4 -6 -3 -8 4 -4 6 3
13 2 17 -4 3 -5 -2 -10 -12 -11 -17 0 -17 -1 0 -8 10 -4 19 -11 19 -16 0 -6 3
-14 8 -20 5 -6 -2 -10 -20 -10 -16 0 -26 2 -24 4 2 2 -1 10 -7 18 -9 10 -8 13
2 13 11 0 11 2 -1 10 -11 7 -11 10 -2 10 7 0 10 5 6 11 -3 6 -1 15 6 19 8 5 7
9 -6 14 -10 4 -15 4 -12 0 10 -9 -10 -44 -25 -44 -8 0 -8 3 2 9 11 7 11 10 0
15 -11 5 -11 7 -1 12 9 4 10 10 2 19 -8 9 -6 14 5 19 9 3 13 2 10 -4 -3 -6 -1
-10 4 -10 6 0 11 4 11 9 0 5 9 7 20 4 11 -3 20 -9 20 -14 0 -5 -7 -5 -17 -2
-10 4 -14 2 -10 -4 9 -14 56 -23 63 -12 2 4 11 6 19 3 12 -5 12 0 2 35 -13 46
-73 127 -100 136 -9 4 -14 11 -11 17 4 6 2 8 -4 4 -5 -3 -13 0 -15 6 -4 10 -6
9 -6 -1 -1 -11 -4 -11 -18 0 -16 13 -17 12 -4 -3z m65 -54 c9 -3 13 -10 10
-15 -3 -5 6 -13 20 -19 29 -11 36 -22 9 -14 -11 3 -6 -5 12 -21 27 -24 27 -25
5 -14 -14 7 -26 12 -27 11 -2 -1 -3 1 -4 6 0 4 -8 19 -17 34 -12 21 -19 25
-29 16 -13 -11 -19 3 -6 15 8 8 8 8 27 1z m-14 -65 c3 -3 19 -13 35 -22 25
-13 26 -16 10 -17 -12 0 -26 5 -33 12 -7 7 -12 8 -12 4 0 -5 -8 -2 -17 5 -15
12 -16 12 -11 -3 4 -9 4 -19 0 -23 -4 -3 -7 -14 -7 -22 0 -9 -7 -18 -15 -20
-13 -4 -13 -3 0 6 13 9 13 11 -2 11 -17 0 -52 40 -42 49 3 3 9 -1 14 -9 8 -12
10 -12 10 -1 0 11 3 11 15 1 14 -12 15 -10 11 12 -3 21 0 25 17 24 12 0 24 -4
27 -7z m96 -51 c4 -7 3 -8 -4 -4 -7 4 -12 2 -12 -3 0 -6 -5 -11 -11 -11 -8 0
-8 5 1 15 15 18 17 18 26 3z m-106 -90 c0 -4 -9 -8 -20 -8 -11 0 -20 4 -20 9
0 6 9 9 20 8 11 -1 20 -5 20 -9z m-18 -53 c-6 -34 -12 -32 -12 6 0 16 4 28 9
25 4 -3 6 -17 3 -31z m-22 9 c0 -2 -16 -3 -35 -2 -20 1 -31 4 -25 8 11 7 60 2
60 -6z m104 -15 c-3 -5 -10 -7 -15 -3 -5 3 -7 10 -3 15 3 5 10 7 15 3 5 -3 7
-10 3 -15z m-224 -35 c0 -2 -16 -3 -35 -2 -20 1 -31 4 -25 8 11 7 60 2 60 -6z
m235 -2 c-3 -3 -11 0 -18 7 -9 10 -8 11 6 5 10 -3 15 -9 12 -12z m-1695 -16
c0 -3 -4 -8 -10 -11 -5 -3 -10 -1 -10 4 0 6 5 11 10 11 6 0 10 -2 10 -4z m80
-8 c0 -4 -15 -5 -32 -1 -47 8 -49 14 -5 11 20 -1 37 -6 37 -10z m1300 2 c0 -5
-4 -10 -10 -10 -5 0 -10 5 -10 10 0 6 5 10 10 10 6 0 10 -4 10 -10z m97 4 c-3
-3 -12 -4 -19 -1 -8 3 -5 6 6 6 11 1 17 -2 13 -5z m-1357 -18 c0 -2 -7 -7 -16
-10 -8 -3 -12 -2 -9 4 6 10 25 14 25 6z m-110 -36 c-8 -5 -19 -10 -25 -10 -5
0 -3 5 5 10 8 5 20 10 25 10 6 0 3 -5 -5 -10z m1353 -15 c-3 -9 -8 -14 -10
-11 -3 3 -2 9 2 15 9 16 15 13 8 -4z m362 5 c3 -5 2 -10 -4 -10 -5 0 -13 5
-16 10 -3 6 -2 10 4 10 5 0 13 -4 16 -10z m10 -40 c8 -13 -5 -13 -25 0 -13 8
-13 10 2 10 9 0 20 -4 23 -10z m-1685 -19 c0 -5 -10 -11 -22 -14 -18 -5 -19
-8 -8 -21 8 -11 9 -16 1 -16 -6 0 -11 4 -11 9 0 5 -14 11 -31 15 -34 6 -31 26
4 25 21 0 21 -1 2 -9 l-20 -9 20 0 c11 0 29 6 39 14 23 17 26 18 26 6z m1330
-12 c13 -9 12 -10 -2 -5 -10 3 -18 1 -18 -4 0 -6 6 -10 13 -10 6 0 4 -5 -6
-11 -14 -8 -27 -7 -50 5 -27 13 -24 22 6 17 4 0 7 4 7 9 0 13 31 13 50 -1z
m323 4 c-7 -2 -19 -2 -25 0 -7 3 -2 5 12 5 14 0 19 -2 13 -5z m-1658 -52 c-3
-6 -17 -11 -29 -11 -13 0 -29 -7 -36 -15 -11 -14 -10 -14 14 -6 17 7 26 7 26
1 0 -6 -6 -10 -14 -10 -7 0 -20 -7 -27 -17 -13 -15 -12 -15 8 -5 12 7 28 12
35 12 7 -1 1 -7 -14 -16 -15 -8 -41 -13 -57 -12 -28 2 -34 13 -8 13 7 0 11 10
10 21 -2 22 31 44 67 44 11 0 20 5 20 12 0 6 3 9 6 5 3 -3 3 -10 -1 -16z
m1552 -33 c-3 -7 -5 -2 -5 12 0 14 2 19 5 13 2 -7 2 -19 0 -25z m-317 7 c14
-16 10 -18 -14 -9 -9 3 -16 10 -16 15 0 14 16 11 30 -6z m110 -7 c0 -4 -9 -8
-20 -8 -11 0 -20 -4 -20 -10 0 -5 -12 -10 -26 -10 -19 0 -25 -4 -21 -14 7 -17
-10 -25 -35 -18 -11 3 -18 14 -18 29 0 19 4 24 16 19 9 -4 24 -1 32 6 13 11
14 11 8 0 -6 -10 -2 -13 15 -10 13 2 23 8 22 14 -1 5 9 10 23 10 13 0 24 -4
24 -8z m28 -13 c-3 -3 -9 2 -12 12 -6 14 -5 15 5 6 7 -7 10 -15 7 -18z m257 7
c-3 -3 -11 0 -18 7 -9 10 -8 11 6 5 10 -3 15 -9 12 -12z m-1739 -14 c-10 -6
-20 -7 -24 -3 -9 8 20 25 31 18 5 -3 2 -10 -7 -15z m1524 7 c-7 -8 -17 -15
-22 -15 -11 0 14 29 26 30 5 0 3 -7 -4 -15z m142 -30 c-2 -14 -6 -25 -8 -25
-2 0 -4 11 -4 25 0 14 4 25 9 25 4 0 6 -11 3 -25z m-1152 5 c8 -5 11 -10 5
-10 -5 0 -17 5 -25 10 -8 5 -10 10 -5 10 6 0 17 -5 25 -10z m-546 -11 c-2 -4
4 -10 13 -12 10 -2 8 -3 -4 -2 -13 1 -23 -2 -23 -6 0 -5 14 -9 30 -9 17 0 30
-5 30 -11 0 -5 -4 -7 -10 -4 -5 3 -10 1 -10 -4 0 -14 3 -14 34 0 13 6 22 17
20 23 -3 7 7 18 21 24 31 14 55 15 55 3 0 -5 -10 -7 -22 -4 -19 4 -20 3 -8 -7
12 -9 11 -10 -7 -5 -12 3 -24 1 -28 -5 -3 -5 1 -10 9 -10 8 0 17 -4 20 -9 3
-5 -5 -8 -19 -8 -26 0 -51 -21 -49 -40 1 -7 2 -17 3 -23 0 -5 5 -10 11 -10 5
0 7 7 4 15 -7 18 14 39 41 43 17 2 17 0 -4 -11 -13 -8 -20 -16 -15 -19 5 -3 3
-3 -3 -2 -18 5 -16 -7 5 -22 16 -12 16 -14 0 -31 -11 -10 -18 -13 -18 -5 0 7
5 12 10 12 6 0 10 4 10 10 0 5 -7 7 -15 4 -8 -4 -15 -15 -15 -25 0 -13 -5 -17
-17 -12 -15 6 -16 4 -5 -9 9 -11 10 -18 2 -23 -6 -4 -9 -1 -8 6 3 12 -46 31
-56 21 -12 -11 -5 -21 12 -17 9 3 4 -1 -13 -9 -34 -16 -55 -5 -35 19 7 8 9 15
4 15 -5 0 -9 11 -9 25 0 14 3 25 8 25 4 0 7 -6 7 -12 0 -9 4 -8 10 2 8 12 10
10 10 -8 0 -13 -4 -20 -10 -17 -5 3 -10 2 -10 -4 0 -5 4 -12 9 -15 12 -8 33
19 23 29 -4 5 -2 5 4 2 7 -4 14 3 18 16 10 40 5 53 -9 22 -7 -16 -14 -24 -14
-17 -1 6 -7 12 -15 12 -7 0 -19 6 -26 14 -9 12 -8 15 9 13 11 0 17 -5 14 -10
-3 -5 0 -7 8 -5 8 3 13 13 11 23 -3 14 1 16 15 11 14 -6 16 -5 6 5 -10 10 -16
10 -25 1 -7 -7 -21 -12 -31 -12 -16 0 -17 3 -7 15 9 11 9 15 1 15 -7 0 -10 4
-6 10 3 5 12 7 19 4 8 -3 17 0 22 7 5 8 2 11 -8 7 -8 -4 -21 -3 -28 2 -7 5 2
7 23 7 20 -1 34 -4 31 -8z m1454 -11 c2 -12 -3 -18 -15 -17 -13 0 -14 2 -4 6
10 4 8 9 -10 20 l-24 13 25 -2 c14 -2 26 -10 28 -20z m106 14 c3 -5 -1 -9 -9
-9 -8 0 -12 4 -9 9 3 4 7 8 9 8 2 0 6 -4 9 -8z m-894 -17 c-15 -9 -19 -14 -10
-15 13 0 13 -1 0 -10 -8 -5 -10 -10 -5 -10 6 0 3 -5 -5 -10 -12 -7 -12 -10 -1
-10 8 0 11 -6 7 -17 -6 -16 -5 -16 8 0 8 11 17 14 20 8 4 -5 -1 -14 -10 -19
-11 -6 -13 -11 -5 -16 8 -5 7 -12 -4 -23 -9 -8 -13 -18 -10 -21 3 -4 11 0 16
8 8 12 9 10 4 -7 -5 -18 -2 -20 15 -16 16 4 19 2 14 -13 -5 -18 -4 -18 10 1 9
11 14 25 11 33 -2 7 0 10 5 7 6 -3 10 -12 10 -18 0 -7 9 -13 20 -13 11 0 20 4
20 8 0 4 -7 8 -15 8 -8 0 -15 4 -15 10 0 5 8 7 18 4 14 -5 14 -4 2 4 -8 6 -18
8 -22 6 -4 -3 -8 0 -8 5 0 6 7 11 15 11 8 0 12 6 9 14 -3 8 0 17 7 22 9 5 10
2 6 -9 -4 -10 -1 -17 6 -17 8 0 6 -4 -3 -10 -12 -7 -12 -10 -1 -10 7 0 11 -6
7 -15 -4 -10 1 -15 14 -15 11 0 20 5 20 10 0 6 8 10 18 10 14 0 14 2 3 9 -10
7 -7 9 11 8 31 -2 33 -27 1 -27 -17 0 -23 -6 -23 -22 0 -13 -4 -18 -8 -13 -9
13 -32 17 -32 6 0 -5 6 -12 13 -14 6 -3 0 -5 -15 -4 -16 1 -28 6 -28 12 0 5
-5 3 -10 -5 -7 -11 -10 -11 -10 -2 0 7 -4 11 -10 7 -5 -3 -7 -12 -3 -20 3 -8
0 -15 -7 -15 -6 0 -8 -6 -4 -12 4 -8 3 -10 -2 -5 -5 5 -9 12 -10 15 -4 34 -24
46 -50 30 -6 -4 -16 3 -22 17 -7 14 -19 24 -29 24 -17 -1 -17 -2 0 -6 9 -2 17
-9 17 -14 0 -6 -9 -5 -21 1 -11 7 -23 9 -26 6 -7 -7 39 -25 50 -19 4 2 7 0 7
-6 0 -6 -13 -9 -29 -8 -16 1 -27 5 -25 9 7 12 -36 20 -49 9 -8 -6 -18 -6 -27
-1 -8 5 -21 5 -30 0 -12 -6 -16 -3 -17 13 -1 12 1 17 5 11 10 -14 54 -16 46
-2 -4 7 -2 8 4 4 7 -4 12 -1 12 6 0 10 2 10 8 1 5 -8 18 -10 32 -6 14 3 39 6
55 6 35 -1 47 14 34 39 -5 10 -6 18 -2 18 4 0 1 5 -7 10 -16 10 -23 50 -8 50
5 0 6 5 2 12 -4 6 -3 8 2 5 6 -3 16 -2 24 4 8 5 20 9 25 8 6 0 -1 -6 -15 -14z
m-600 -11 c0 -8 -4 -12 -10 -9 -5 3 -10 10 -10 16 0 5 5 9 10 9 6 0 10 -7 10
-16z m690 1 c0 -8 -2 -15 -4 -15 -2 0 -6 7 -10 15 -3 8 -1 15 4 15 6 0 10 -7
10 -15z m664 4 c-3 -6 0 -15 7 -20 10 -6 8 -9 -9 -9 -13 0 -20 4 -17 10 3 5 0
7 -9 4 -8 -3 -23 -1 -33 6 -17 10 -17 11 2 6 11 -3 27 -1 35 4 20 13 33 12 24
-1z m-39 -29 c17 -8 16 -8 -7 -7 -16 1 -28 5 -28 9 0 10 9 9 35 -2z m142 4
c-3 -3 -12 -4 -19 -1 -8 3 -5 6 6 6 11 1 17 -2 13 -5z m-795 -13 c-10 -6 -9
-10 7 -14 15 -4 19 -10 14 -23 -6 -16 -7 -16 -14 2 -6 14 -8 15 -9 4 -2 -8 -2
-20 -1 -27 1 -6 -4 -15 -10 -19 -8 -5 -9 -3 -4 6 6 9 4 11 -5 5 -10 -6 -12 -4
-6 10 5 15 4 16 -9 5 -8 -7 -15 -8 -15 -2 0 15 26 33 35 24 5 -4 5 -1 1 6 -9
15 1 32 17 32 8 0 8 -3 -1 -9z m1063 -1 c3 -5 1 -10 -4 -10 -6 0 -11 5 -11 10
0 6 2 10 4 10 3 0 8 -4 11 -10z m-1545 -9 c-8 -6 -17 -8 -21 -5 -4 2 -9 0 -11
-5 -1 -5 -9 -3 -16 5 -11 12 -7 14 25 14 27 0 34 -3 23 -9z m376 -19 c-3 -2
-1 -13 4 -23 9 -15 7 -17 -12 -14 -12 3 -27 0 -34 -6 -9 -7 -15 -5 -23 8 -6
10 -11 13 -11 8 0 -6 -13 -12 -30 -13 -22 -2 -32 3 -40 20 -10 22 -10 22 4 4
11 -13 22 -17 41 -12 16 4 23 11 20 19 -4 7 3 1 14 -12 12 -13 21 -18 21 -11
0 7 8 10 20 7 11 -3 20 -2 20 3 0 4 -9 10 -20 13 -11 3 -20 11 -19 19 0 10 2
10 6 1 2 -7 12 -13 21 -12 11 0 12 2 5 6 -7 2 -13 9 -13 15 0 6 6 5 15 -2 9
-7 13 -15 11 -18z m191 16 c-2 -7 3 -19 12 -26 14 -12 14 -13 -3 -8 -14 5 -17
2 -12 -11 5 -16 4 -16 -8 1 -12 14 -12 22 -3 37 14 22 21 25 14 7z m703 2 c7
-4 -14 -6 -48 -4 -56 3 -60 2 -57 -17 2 -11 0 -17 -6 -14 -5 4 -7 11 -4 16 4
5 -9 10 -27 10 l-33 2 35 6 c49 10 125 10 140 1z m-1340 -4 c0 -2 -7 -7 -16
-10 -8 -3 -12 -2 -9 4 6 10 25 14 25 6z m390 -4 c0 -5 -13 -7 -30 -4 -16 2
-30 6 -30 8 0 2 14 4 30 4 17 0 30 -4 30 -8z m1127 -14 c-3 -8 -6 -5 -6 6 -1
11 2 17 5 13 3 -3 4 -12 1 -19z m127 3 c4 -5 -3 -7 -14 -4 -23 6 -26 13 -6 13
8 0 17 -4 20 -9z m-1609 -11 c17 -8 16 -9 -7 -7 -15 2 -30 6 -34 10 -10 10 17
8 41 -3z m242 -12 c-3 -8 -6 -5 -6 6 -1 11 2 17 5 13 3 -3 4 -12 1 -19z m73
12 c0 -5 -8 -10 -17 -10 -15 0 -16 2 -3 10 19 12 20 12 20 0z m848 -35 c0 -20
-3 -22 -14 -10 -16 16 -19 29 -4 20 6 -3 10 -1 10 4 0 6 -4 11 -10 11 -5 0
-10 5 -10 11 0 8 4 8 14 0 7 -6 14 -22 14 -36z m90 38 c-10 -2 -18 -8 -18 -13
0 -5 8 -7 18 -3 9 3 14 3 10 -1 -3 -4 -18 -9 -32 -10 -20 -3 -24 0 -16 9 5 6
8 14 5 16 -2 3 8 5 23 6 15 0 19 -1 10 -4z m-1304 -19 c3 -8 2 -12 -4 -9 -6 3
-10 10 -10 16 0 14 7 11 14 -7z m-24 -4 c0 -5 -4 -10 -10 -10 -5 0 -10 5 -10
10 0 6 5 10 10 10 6 0 10 -4 10 -10z m297 4 c-3 -3 -12 -4 -19 -1 -8 3 -5 6 6
6 11 1 17 -2 13 -5z m-201 -19 c-3 -8 -1 -15 5 -15 6 0 7 -5 3 -11 -3 -6 0
-15 7 -20 11 -7 10 -9 -3 -9 -11 0 -18 8 -18 19 0 11 -5 23 -11 27 -8 4 -7 9
2 15 19 12 22 11 15 -6z m1167 2 c3 -8 2 -20 -3 -26 -5 -9 -7 -4 -7 13 0 29 2
32 10 13z m-983 -8 c0 -5 -4 -7 -10 -4 -6 3 -7 -1 -4 -9 7 -18 -11 -22 -22 -5
-3 6 0 15 7 20 19 12 29 11 29 -2z m288 -1 c16 -16 15 -29 -2 -22 -16 6 -30
34 -18 34 5 0 13 -5 20 -12z m512 2 c0 -5 -2 -10 -4 -10 -3 0 -8 5 -11 10 -3
6 -1 10 4 10 6 0 11 -4 11 -10z m65 0 c4 -6 -7 -10 -24 -10 -17 0 -31 5 -31
10 0 6 11 10 24 10 14 0 28 -4 31 -10z m549 2 c3 -5 -1 -9 -9 -9 -8 0 -12 4
-9 9 3 4 7 8 9 8 2 0 6 -4 9 -8z m-1661 -9 c-7 -2 -19 -2 -25 0 -7 3 -2 5 12
5 14 0 19 -2 13 -5z m1327 3 c0 -2 -7 -7 -16 -10 -8 -3 -12 -2 -9 4 6 10 25
14 25 6z m-1060 -16 c0 -5 -5 -10 -11 -10 -5 0 -7 5 -4 10 3 6 8 10 11 10 2 0
4 -4 4 -10z m414 -15 c-5 -12 -2 -14 12 -8 17 6 18 5 4 -12 -14 -17 -13 -17
10 -10 14 4 22 4 17 -1 -10 -11 -78 -13 -71 -2 3 4 10 6 15 2 6 -3 7 4 3 20
-4 16 -2 26 5 26 6 0 8 -7 5 -15z m46 5 c0 -5 9 -10 20 -10 11 0 20 -4 20 -10
0 -5 10 -11 23 -11 16 -1 18 -2 5 -6 -10 -2 -38 -15 -63 -28 -37 -20 -45 -22
-45 -9 0 8 3 13 8 11 4 -3 21 1 37 8 17 7 23 14 15 14 -13 1 -13 2 0 11 13 8
12 10 -3 10 -10 0 -25 7 -33 15 -14 13 -14 15 0 15 9 0 16 -4 16 -10z m260 0
c0 -6 -11 -8 -27 -4 -40 10 -41 14 -5 14 18 0 32 -5 32 -10z m30 0 c0 -5 -4
-10 -10 -10 -5 0 -10 5 -10 10 0 6 5 10 10 10 6 0 10 -4 10 -10z m25 0 c3 -5
1 -10 -4 -10 -6 0 -11 5 -11 10 0 6 2 10 4 10 3 0 8 -4 11 -10z m65 1 c0 -5
-11 -8 -25 -7 -33 1 -33 16 0 16 14 0 25 -4 25 -9z m417 -23 c-3 -7 -5 -2 -5
12 0 14 2 19 5 13 2 -7 2 -19 0 -25z m140 26 c-3 -3 -12 -4 -19 -1 -8 3 -5 6
6 6 11 1 17 -2 13 -5z m-1734 -10 c-7 -3 -9 -13 -6 -22 4 -15 3 -15 -6 -2 -15
22 -14 30 7 29 9 0 12 -3 5 -5z m44 0 c-3 -3 -12 -4 -19 -1 -8 3 -5 6 6 6 11
1 17 -2 13 -5z m1330 0 c-3 -3 -12 -4 -19 -1 -8 3 -5 6 6 6 11 1 17 -2 13 -5z
m-1432 -38 c7 3 16 1 19 -4 3 -5 -6 -8 -20 -6 -20 2 -24 -1 -19 -17 4 -12 2
-19 -6 -19 -7 0 -9 3 -6 7 4 3 0 17 -8 30 -9 13 -11 23 -6 23 5 0 12 -6 14
-12 3 -7 6 -2 8 12 2 23 2 23 6 3 3 -13 10 -20 18 -17z m395 30 c0 -3 -4 -8
-10 -11 -5 -3 -10 -1 -10 4 0 6 5 11 10 11 6 0 10 -2 10 -4z m936 -38 c2 -13
0 -17 -2 -10 -3 6 -9 10 -13 8 -4 -3 -8 7 -9 22 -2 20 1 23 10 14 6 -6 13 -22
14 -34z m444 26 c0 -2 -7 -4 -15 -4 -8 0 -15 4 -15 10 0 5 7 7 15 4 8 -4 15
-8 15 -10z m-1595 -4 c4 -6 15 -8 25 -5 10 3 21 1 24 -4 7 -10 -27 -9 -54 1
-8 4 -22 9 -30 11 -10 4 -7 6 7 6 12 1 25 -4 28 -9z m930 0 c3 -5 1 -10 -4
-10 -6 0 -11 5 -11 10 0 6 2 10 4 10 3 0 8 -4 11 -10z m292 4 c-3 -3 -12 -4
-19 -1 -8 3 -5 6 6 6 11 1 17 -2 13 -5z m-1027 -24 c6 -11 8 -20 6 -20 -3 0
-10 9 -16 20 -6 11 -8 20 -6 20 3 0 10 -9 16 -20z m130 -2 c0 -6 -6 -5 -15 2
-8 7 -15 14 -15 16 0 2 7 1 15 -2 8 -4 15 -11 15 -16z m123 7 c-3 -9 -8 -14
-10 -11 -3 3 -2 9 2 15 9 16 15 13 8 -4z m517 5 c0 -5 -2 -10 -4 -10 -3 0 -8
5 -11 10 -3 6 -1 10 4 10 6 0 11 -4 11 -10z m60 0 c0 -5 -2 -10 -4 -10 -3 0
-8 5 -11 10 -3 6 -1 10 4 10 6 0 11 -4 11 -10z m-1269 -24 c-6 -7 -9 -15 -6
-17 2 -3 -6 -5 -18 -6 -12 0 -16 1 -9 4 6 3 9 9 6 15 -8 12 16 29 29 21 4 -2
3 -10 -2 -17z m154 14 c-3 -5 -18 -9 -33 -9 l-27 1 30 8 c17 4 31 8 33 9 2 0
0 -3 -3 -9z m63 3 c-10 -2 -26 -2 -35 0 -10 3 -2 5 17 5 19 0 27 -2 18 -5z
m415 0 c-7 -2 -19 -2 -25 0 -7 3 -2 5 12 5 14 0 19 -2 13 -5z m847 3 c0 -2 -7
-7 -16 -10 -8 -3 -12 -2 -9 4 6 10 25 14 25 6z m355 -14 c-3 -3 -11 0 -18 7
-9 10 -8 11 6 5 10 -3 15 -9 12 -12z m-329 -1 c-6 -9 -46 -22 -46 -15 0 3 10
9 23 14 29 11 29 11 23 1z m-1271 -24 c6 -5 3 -7 -8 -3 -9 3 -34 -4 -54 -15
-27 -15 -34 -17 -24 -5 7 9 19 16 26 16 7 0 18 7 25 15 7 9 16 12 19 8 3 -4
11 -12 16 -16z m65 13 c0 -5 -5 -10 -11 -10 -5 0 -7 5 -4 10 3 6 8 10 11 10 2
0 4 -4 4 -10z m193 3 c-7 -2 -13 -9 -13 -14 0 -4 6 -6 13 -3 8 3 20 -3 28 -13
13 -17 13 -17 -4 -4 -14 11 -21 11 -29 3 -9 -9 -8 -12 4 -12 21 0 32 -16 17
-26 -8 -5 -9 -3 -4 6 6 9 4 12 -7 8 -21 -9 -43 29 -27 48 6 8 17 14 23 13 7 0
6 -2 -1 -6z m80 -6 c4 3 7 1 7 -5 0 -17 -16 -15 -31 6 -12 15 -12 16 2 5 9 -7
19 -10 22 -6z m94 7 c-3 -3 -12 -4 -19 -1 -8 3 -5 6 6 6 11 1 17 -2 13 -5z
m130 -7 c13 17 13 16 4 -4 -15 -29 -14 -33 4 -27 8 4 12 11 8 17 -4 6 -1 7 7
2 10 -6 10 -11 -3 -20 -17 -12 -24 -31 -9 -21 4 2 14 0 22 -5 11 -7 9 -8 -9
-6 -14 2 -27 9 -29 16 -3 8 -8 6 -17 -6 -13 -17 -14 -17 -12 4 0 12 5 19 9 17
4 -3 8 -1 8 4 0 6 -7 12 -15 16 -8 3 -15 10 -15 16 0 6 7 4 16 -5 15 -14 17
-14 31 2z m70 7 c-3 -3 -12 -4 -19 -1 -8 3 -5 6 6 6 11 1 17 -2 13 -5z m333
-4 c0 -5 -4 -10 -10 -10 -5 0 -10 5 -10 10 0 6 5 10 10 10 6 0 10 -4 10 -10z
m50 -2 c0 -4 -7 -8 -15 -8 -8 0 -15 4 -15 8 0 5 7 9 15 9 8 0 15 -4 15 -9z
m35 2 c3 -5 1 -10 -4 -10 -6 0 -11 5 -11 10 0 6 2 10 4 10 3 0 8 -4 11 -10z
m-1205 -4 c0 -3 -4 -8 -10 -11 -5 -3 -10 -1 -10 4 0 6 5 11 10 11 6 0 10 -2
10 -4z m79 1 c-2 -1 -13 -9 -24 -17 -19 -14 -19 -14 -6 3 7 9 18 17 24 17 6 0
8 -1 6 -3z m558 -3 c-3 -3 -12 -4 -19 -1 -8 3 -5 6 6 6 11 1 17 -2 13 -5z
m-63 -12 c2 -4 -5 -9 -17 -9 -17 -2 -19 0 -7 7 18 12 18 12 24 2z m216 3 c0
-1 -10 -10 -22 -21 -14 -12 -18 -13 -10 -3 6 9 10 18 7 21 -3 2 2 5 10 5 8 0
15 -1 15 -2z m233 -6 c2 3 2 1 1 -6 -2 -6 0 -14 4 -16 4 -2 1 -2 -7 0 -9 2
-11 -2 -7 -13 5 -14 4 -15 -9 -4 -13 11 -13 15 -3 21 12 8 -24 14 -62 10 -12
-2 -12 0 -1 7 7 5 28 6 47 2 18 -4 35 -5 37 -1z m614 -36 c-3 -10 -5 -2 -5 17
0 19 2 27 5 18 2 -10 2 -26 0 -35z m-1442 27 c3 -5 1 -10 -4 -10 -6 0 -11 5
-11 10 0 6 2 10 4 10 3 0 8 -4 11 -10z m415 0 c0 -5 -2 -10 -4 -10 -3 0 -8 5
-11 10 -3 6 -1 10 4 10 6 0 11 -4 11 -10z m335 -13 c18 -4 17 -5 -3 -6 -13 0
-21 -5 -18 -9 2 -4 -5 -9 -17 -9 -19 -2 -20 -1 -5 8 10 6 15 16 12 27 -4 11
-3 13 3 6 4 -7 17 -14 28 -17z m472 17 c-3 -3 -12 -4 -19 -1 -8 3 -5 6 6 6 11
1 17 -2 13 -5z m338 -12 c-3 -3 -11 0 -18 7 -9 10 -8 11 6 5 10 -3 15 -9 12
-12z m-1798 -14 c-3 -8 -6 -5 -6 6 -1 11 2 17 5 13 3 -3 4 -12 1 -19z m61 15
c-10 -2 -26 -2 -35 0 -10 3 -2 5 17 5 19 0 27 -2 18 -5z m98 -20 c-14 -15 -28
-24 -32 -20 -4 4 -1 7 7 7 12 0 11 2 -1 11 -13 9 -13 10 2 6 9 -3 19 1 22 9 3
8 10 14 16 14 6 0 0 -12 -14 -27z m423 4 c0 -9 -2 -8 -6 1 -2 6 -10 9 -15 6
-7 -4 -8 -2 -4 5 9 13 26 5 25 -12z m315 11 c-5 -8 -1 -9 12 -4 15 6 16 4 7
-5 -15 -15 -61 -20 -70 -7 -3 7 -1 8 5 4 7 -4 12 -3 12 3 0 5 8 12 18 14 9 3
18 5 20 6 2 0 0 -4 -4 -11z m326 2 c0 -5 -2 -10 -4 -10 -3 0 -8 5 -11 10 -3 6
-1 10 4 10 6 0 11 -4 11 -10z m-510 -15 c0 -8 -2 -15 -4 -15 -2 0 -6 7 -10 15
-3 8 -1 15 4 15 6 0 10 -7 10 -15z m120 5 c0 -5 -5 -10 -11 -10 -5 0 -7 5 -4
10 3 6 8 10 11 10 2 0 4 -4 4 -10z m-850 -8 c0 -4 -11 -8 -25 -8 -14 0 -25 4
-25 8 0 4 11 8 25 8 14 0 25 -4 25 -8z m67 -7 c0 -8 -4 -12 -9 -9 -4 3 -8 9
-8 15 0 5 4 9 8 9 5 0 9 -7 9 -15z m482 5 c-6 -5 -18 -6 -26 -3 -19 8 -16 11
13 11 17 0 22 -3 13 -8z m726 -10 c3 -5 2 -10 -4 -10 -5 0 -13 5 -16 10 -3 6
-2 10 4 10 5 0 13 -4 16 -10z m-1168 -6 c-3 -3 -12 -4 -19 -1 -8 3 -5 6 6 6
11 1 17 -2 13 -5z m408 -4 c-3 -5 -11 -10 -16 -10 -6 0 -7 5 -4 10 3 6 11 10
16 10 6 0 7 -4 4 -10z m537 1 c-11 -7 -11 -9 2 -14 8 -3 17 -1 19 6 3 7 4 2 4
-10 -1 -17 -4 -20 -14 -11 -8 6 -17 8 -20 4 -4 -4 -1 -12 7 -17 13 -9 13 -10
0 -6 -24 6 -21 57 3 57 8 0 8 -3 -1 -9z m-1072 -11 c-8 -5 -22 -9 -30 -9 -10
0 -8 3 5 9 27 12 43 12 25 0z m580 -7 c0 -3 -7 -3 -15 1 -8 3 -15 1 -15 -4 0
-6 -5 -10 -11 -10 -8 0 -8 4 1 14 10 13 40 12 40 -1z m233 4 c-2 -4 -22 -5
-44 -2 -27 4 -39 2 -37 -5 4 -16 -39 -32 -48 -19 -4 7 -10 7 -18 0 -9 -8 -13
-7 -13 2 0 14 28 19 37 7 3 -4 14 -4 25 1 13 5 15 8 5 8 -12 1 -13 3 -1 10 17
11 101 9 94 -2z m132 3 c3 -6 -1 -7 -9 -4 -18 7 -21 14 -7 14 6 0 13 -4 16
-10z m87 3 c-10 -4 -10 -8 0 -21 12 -15 11 -16 -4 -3 -10 7 -18 17 -18 22 0 5
8 9 18 8 11 0 12 -2 4 -6z m378 2 c0 -7 -30 -13 -34 -7 -3 4 4 9 15 9 10 1 19
0 19 -2z m-1260 -37 c0 -5 -7 -3 -15 6 -8 8 -15 18 -15 22 0 3 7 1 15 -6 8 -7
15 -17 15 -22z m717 18 c4 -4 4 -7 -2 -6 -21 5 -29 -1 -15 -10 11 -7 11 -10 2
-10 -7 0 -11 -4 -8 -9 4 -5 -4 -6 -16 -3 -21 6 -21 7 -4 10 15 3 16 6 5 13
-11 7 -11 9 -1 9 7 0 11 4 8 9 -7 11 20 8 31 -3z m-819 -17 c10 -16 17 -18 25
-10 14 14 30 14 21 0 -4 -8 0 -9 15 -4 12 4 21 2 21 -4 0 -6 8 -8 18 -5 14 5
14 4 2 -4 -8 -7 -19 -7 -25 -2 -19 16 -39 -5 -26 -27 9 -18 7 -20 -17 -16 -24
3 -25 2 -7 -7 16 -8 14 -9 -13 -6 -23 3 -32 1 -29 -7 3 -8 -10 -13 -37 -14
-34 -1 -37 0 -18 8 13 5 29 6 34 2 7 -4 9 2 6 15 -4 13 -2 20 3 16 19 -12 65
6 65 26 0 15 -6 18 -31 14 -16 -2 -24 -1 -17 2 10 5 10 9 1 20 -14 17 -36 18
-41 3 -2 -6 -11 -7 -23 -3 -19 8 -18 9 5 15 43 12 55 10 68 -12z m879 3 c0
-10 -9 -19 -18 -19 -17 -2 -17 -1 -1 17 22 23 21 23 19 2z m-707 4 c0 -2 -7
-7 -16 -10 -8 -3 -12 -2 -9 4 6 10 25 14 25 6z m384 -9 c15 -11 12 -13 -24
-13 -39 -1 -53 9 -27 19 21 9 32 8 51 -6z m179 6 c-7 -2 -19 -2 -25 0 -7 3 -2
5 12 5 14 0 19 -2 13 -5z m328 -14 c-21 -17 -23 -22 -10 -31 11 -8 10 -9 -4
-4 -10 3 -24 6 -30 6 -6 0 4 11 23 25 43 29 54 32 21 4z m101 -34 c7 -13 2
-10 -16 8 -22 24 -29 26 -47 17 -11 -7 -23 -9 -26 -7 -2 3 5 8 16 12 12 3 21
11 21 16 0 13 39 -22 52 -46z m165 33 c-3 -8 -6 -5 -6 6 -1 11 2 17 5 13 3 -3
4 -12 1 -19z m-1070 6 c-3 -3 -12 -4 -19 -1 -8 3 -5 6 6 6 11 1 17 -2 13 -5z
m571 -19 c0 -14 -4 -25 -8 -25 -5 0 -7 8 -5 18 2 9 4 20 4 25 2 18 9 4 9 -18z
m147 15 c4 -6 11 -7 17 -4 7 4 8 2 4 -5 -6 -9 -12 -9 -24 1 -10 7 -19 14 -21
15 -2 2 1 3 7 3 6 0 14 -5 17 -10z m285 -10 c0 -5 -7 -10 -16 -10 -8 0 -12 5
-9 10 3 6 10 10 16 10 5 0 9 -4 9 -10z m-960 -20 c0 -5 -4 -10 -10 -10 -5 0
-10 5 -10 10 0 6 5 10 10 10 6 0 10 -4 10 -10z m274 -5 c10 -8 23 -12 29 -8 6
3 7 1 3 -5 -5 -8 -13 -9 -24 -2 -33 19 -47 30 -37 30 6 -1 19 -7 29 -15z m111
5 c-3 -5 -12 -10 -18 -10 -7 0 -6 4 3 10 19 12 23 12 15 0z m79 2 c2 -4 -5 -9
-17 -9 -17 -2 -19 0 -7 7 18 12 18 12 24 2z m116 0 c0 -4 -9 -8 -20 -8 -11 0
-20 4 -20 8 0 4 9 8 20 8 11 0 20 -4 20 -8z m250 4 c0 -2 -7 -7 -16 -10 -8 -3
-12 -2 -9 4 6 10 25 14 25 6z m291 -19 c-10 -9 -11 -8 -5 6 3 10 9 15 12 12 3
-3 0 -11 -7 -18z m-1411 3 c-18 -12 -30 -13 -30 -2 0 4 10 9 22 9 18 2 20 0 8
-7z m542 -12 c13 -13 17 -17 8 -10 -9 6 -19 10 -21 8 -2 -2 -10 2 -17 10 -21
23 5 16 30 -8z m81 7 c-3 -9 -8 -14 -10 -11 -3 3 -2 9 2 15 9 16 15 13 8 -4z
m357 5 c-8 -5 -22 -9 -30 -9 -10 0 -8 3 5 9 27 12 43 12 25 0z m369 0 c-6 -5
-18 -6 -26 -3 -19 8 -16 11 13 11 17 0 22 -3 13 -8z m-1479 -16 c0 -2 -11 -4
-25 -4 -14 0 -25 4 -25 9 0 4 11 6 25 3 14 -2 25 -6 25 -8z m845 -2 c-3 -3
-11 0 -18 7 -9 10 -8 11 6 5 10 -3 15 -9 12 -12z m281 3 c-11 -8 -25 -15 -30
-15 -6 1 0 7 14 15 32 19 40 18 16 0z m92 -10 c-3 -3 -9 2 -12 12 -6 14 -5 15
5 6 7 -7 10 -15 7 -18z m-1148 7 c0 -5 -7 -9 -15 -9 -8 0 -12 4 -9 9 3 4 9 8
15 8 5 0 9 -4 9 -8z m350 -2 c0 -5 -4 -10 -10 -10 -5 0 -10 5 -10 10 0 6 5 10
10 10 6 0 10 -4 10 -10z m367 4 c-3 -3 -12 -4 -19 -1 -8 3 -5 6 6 6 11 1 17
-2 13 -5z m660 -16 c-3 -8 -6 -5 -6 6 -1 11 2 17 5 13 3 -3 4 -12 1 -19z m57
-8 c0 -31 -20 -37 -34 -10 -6 11 -7 20 -3 19 4 -1 15 -1 23 0 13 1 13 2 0 12
-13 9 -13 10 0 7 8 -3 14 -15 14 -28z m-1241 13 c-7 -2 -19 -2 -25 0 -7 3 -2
5 12 5 14 0 19 -2 13 -5z m1047 3 c0 -3 -4 -8 -10 -11 -5 -3 -10 -1 -10 4 0 6
5 11 10 11 6 0 10 -2 10 -4z m-572 -18 c-2 -6 -10 -13 -16 -14 -7 -1 -8 0 -2
3 5 2 8 9 4 14 -3 5 0 9 6 9 7 0 10 -5 8 -12z m119 -3 c0 -8 -4 -12 -9 -9 -4
3 -8 9 -8 15 0 5 4 9 8 9 5 0 9 -7 9 -15z m43 5 c0 -5 -7 -7 -15 -4 -8 4 -15
8 -15 10 0 2 7 4 15 4 8 0 15 -4 15 -10z m143 3 c-7 -2 -19 -2 -25 0 -7 3 -2
5 12 5 14 0 19 -2 13 -5z m110 0 c3 -5 -6 -9 -20 -10 -19 -1 -22 1 -12 8 17
11 26 11 32 2z m-733 -18 c0 -8 -4 -15 -10 -15 -5 0 -10 7 -10 15 0 8 5 15 10
15 6 0 10 -7 10 -15z m675 5 c-3 -5 -12 -10 -18 -10 -7 0 -6 4 3 10 19 12 23
12 15 0z m125 6 c0 -2 -8 -10 -17 -17 -16 -13 -17 -12 -4 4 13 16 21 21 21 13z
m-963 -12 c-3 -3 -12 -4 -19 -1 -8 3 -5 6 6 6 11 1 17 -2 13 -5z m253 2 c0 -3
-4 -8 -10 -11 -5 -3 -10 -1 -10 4 0 6 5 11 10 11 6 0 10 -2 10 -4z m190 -6 c0
-5 -2 -10 -4 -10 -3 0 -8 5 -11 10 -3 6 -1 10 4 10 6 0 11 -4 11 -10z m130 4
c0 -8 -19 -13 -24 -6 -3 5 1 9 9 9 8 0 15 -2 15 -3z m187 0 c-3 -3 -12 -4 -19
-1 -8 3 -5 6 6 6 11 1 17 -2 13 -5z m440 -16 c2 -18 0 -20 -7 -8 -12 18 -13
30 -2 30 4 0 9 -10 9 -22z m-1337 -3 c0 -2 -6 -8 -13 -14 -10 -8 -14 -7 -14 2
0 8 6 14 14 14 7 0 13 -1 13 -2z m620 -1 c0 -8 -19 -13 -24 -6 -3 5 1 9 9 9 8
0 15 -2 15 -3z m285 -4 c3 -6 -1 -7 -9 -4 -18 7 -21 14 -7 14 6 0 13 -4 16
-10z m67 -5 c0 -5 -5 -10 -12 -11 -7 -2 -6 -1 1 3 8 4 7 8 -2 15 -11 8 -11 9
-1 6 8 -2 14 -8 14 -13z m-667 -5 c3 -5 1 -10 -4 -10 -6 0 -11 5 -11 10 0 6 2
10 4 10 3 0 8 -4 11 -10z m528 3 c-7 -2 -19 -2 -25 0 -7 3 -2 5 12 5 14 0 19
-2 13 -5z m-773 -7 c0 -2 -8 -10 -17 -17 -16 -13 -17 -12 -4 4 13 16 21 21 21
13z m-100 -16 c0 -5 -2 -10 -4 -10 -3 0 -8 5 -11 10 -3 6 -1 10 4 10 6 0 11
-4 11 -10z m840 -14 c-14 -13 -27 -21 -30 -19 -4 4 40 42 50 43 2 0 -7 -11
-20 -24z m47 2 c2 -18 0 -20 -7 -8 -12 18 -13 30 -2 30 4 0 9 -10 9 -22z
m-887 -29 c0 -6 -4 -7 -10 -4 -5 3 -10 11 -10 16 0 6 5 7 10 4 6 -3 10 -11 10
-16z m550 11 c0 -5 -2 -10 -4 -10 -3 0 -8 5 -11 10 -3 6 -1 10 4 10 6 0 11 -4
11 -10z m726 -2 c4 -7 4 -10 -1 -6 -4 4 -15 2 -24 -5 -14 -11 -14 -10 -2 6 16
20 18 21 27 5z m-1139 -4 c-3 -3 -12 -4 -19 -1 -8 3 -5 6 6 6 11 1 17 -2 13
-5z m46 -1 c-7 -2 -19 -2 -25 0 -7 3 -2 5 12 5 14 0 19 -2 13 -5z m157 -3 c0
-5 -4 -10 -10 -10 -5 0 -10 5 -10 10 0 6 5 10 10 10 6 0 10 -4 10 -10z m47 4
c-3 -3 -12 -4 -19 -1 -8 3 -5 6 6 6 11 1 17 -2 13 -5z m540 -16 c-3 -8 -6 -5
-6 6 -1 11 2 17 5 13 3 -3 4 -12 1 -19z m300 16 c-3 -3 -12 -4 -19 -1 -8 3 -5
6 6 6 11 1 17 -2 13 -5z m-341 -23 c0 -11 -3 -19 -6 -19 -3 1 -13 -2 -23 -7
-10 -4 -21 -5 -24 -1 -4 3 1 6 10 6 11 0 15 6 11 18 -4 13 -3 14 4 4 7 -11 10
-11 15 2 8 21 13 20 13 -3z m284 15 c0 -2 -8 -10 -17 -17 -16 -13 -17 -12 -4
4 13 16 21 21 21 13z m240 0 c0 -2 -7 -7 -16 -10 -8 -3 -12 -2 -9 4 6 10 25
14 25 6z m-1541 -32 c4 3 13 1 21 -5 12 -7 9 -9 -10 -10 -23 0 -23 -1 -5 -9
19 -8 19 -9 -2 -9 -13 -1 -23 3 -23 8 0 5 -10 7 -22 5 l-23 -5 23 10 c12 6 22
16 23 23 0 10 2 10 6 0 2 -6 8 -10 12 -8z m1391 12 c0 -2 -7 -7 -16 -10 -8 -3
-12 -2 -9 4 6 10 25 14 25 6z m-347 -26 c-3 -11 -10 -23 -16 -27 -5 -3 -8 -2
-5 3 3 5 8 17 11 27 9 24 16 22 10 -3z m-650 -17 c-7 -2 -19 -2 -25 0 -7 3 -2
5 12 5 14 0 19 -2 13 -5z m852 -3 c3 -6 -1 -7 -9 -4 -18 7 -21 14 -7 14 6 0
13 -4 16 -10z m308 -7 c-7 -2 -19 -2 -25 0 -7 3 -2 5 12 5 14 0 19 -2 13 -5z
m-1548 -13 c3 -5 2 -10 -4 -10 -5 0 -13 5 -16 10 -3 6 -2 10 4 10 5 0 13 -4
16 -10z m1145 -5 c0 -2 -13 -11 -30 -20 -16 -9 -30 -12 -30 -7 0 4 12 13 28
19 15 6 28 11 30 12 1 1 2 -1 2 -4z m-680 -9 c0 -3 -4 -8 -10 -11 -5 -3 -10
-1 -10 4 0 6 5 11 10 11 6 0 10 -2 10 -4z m-360 -30 c-7 -7 -13 -7 -20 0 -6 6
-3 10 10 10 13 0 16 -4 10 -10z m1036 5 c-6 -10 -66 -33 -66 -26 0 3 15 11 33
19 40 18 39 18 33 7z m-1156 -12 c0 -5 5 -7 12 -3 7 4 8 3 4 -5 -6 -9 -11 -9
-22 0 -17 14 -18 19 -4 19 6 0 10 -5 10 -11z m1220 -4 c-7 -8 -17 -15 -23 -15
-6 0 -2 7 9 15 25 19 30 19 14 0z m-945 -5 c-3 -5 -12 -10 -18 -10 -7 0 -6 4
3 10 19 12 23 12 15 0z m762 -22 c-3 -7 -5 -2 -5 12 0 14 2 19 5 13 2 -7 2
-19 0 -25z m-987 13 c0 -6 -4 -12 -8 -15 -5 -3 -9 1 -9 9 0 8 4 15 9 15 4 0 8
-4 8 -9z m60 -11 c0 -5 -5 -10 -11 -10 -5 0 -7 5 -4 10 3 6 8 10 11 10 2 0 4
-4 4 -10z m1078 -15 c-3 -3 -9 2 -12 12 -6 14 -5 15 5 6 7 -7 10 -15 7 -18z
m-1168 5 c0 -5 -2 -10 -4 -10 -3 0 -8 5 -11 10 -3 6 -1 10 4 10 6 0 11 -4 11
-10z m470 -14 c0 -2 -7 -7 -16 -10 -8 -3 -12 -2 -9 4 6 10 25 14 25 6z m50 -2
c0 -8 -19 -13 -24 -6 -3 5 1 9 9 9 8 0 15 -2 15 -3z m687 0 c-3 -3 -12 -4 -19
-1 -8 3 -5 6 6 6 11 1 17 -2 13 -5z m-1200 -10 c-3 -3 -12 -4 -19 -1 -8 3 -5
6 6 6 11 1 17 -2 13 -5z m-47 -8 c0 -2 -7 -7 -16 -10 -8 -3 -12 -2 -9 4 6 10
25 14 25 6z m195 -5 c3 -5 2 -12 -3 -15 -5 -3 -9 1 -9 9 0 17 3 19 12 6z m115
3 c0 -8 -19 -13 -24 -6 -3 5 1 9 9 9 8 0 15 -2 15 -3z m190 -9 c-7 -9 -15 -13
-19 -10 -3 3 1 10 9 15 21 14 24 12 10 -5z m-466 -7 c-3 -4 -9 -8 -15 -8 -5 0
-9 4 -9 8 0 5 7 9 15 9 8 0 12 -4 9 -9z m-39 -8 c-3 -5 -1 -10 6 -10 7 0 10
-3 6 -6 -3 -4 -14 -3 -24 0 -15 6 -15 8 -3 16 19 12 23 12 15 0z m163 -3 c-7
-8 -22 -12 -33 -9 -18 5 -18 6 5 13 38 11 42 10 28 -4z m112 -22 c0 -5 -5 -3
-10 5 -5 8 -10 20 -10 25 0 6 5 3 10 -5 5 -8 10 -19 10 -25z m258 10 c-3 -3
-9 2 -12 12 -6 14 -5 15 5 6 7 -7 10 -15 7 -18z m766 13 c-3 -4 -11 -5 -19 -1
-21 7 -19 12 4 10 11 0 18 -5 15 -9z m53 6 c-3 -3 -12 -4 -19 -1 -8 3 -5 6 6
6 11 1 17 -2 13 -5z m217 -2 c2 -4 -5 -9 -17 -9 -17 -2 -19 0 -7 7 18 12 18
12 24 2z m-1267 -24 c-3 -8 -6 -5 -6 6 -1 11 2 17 5 13 3 -3 4 -12 1 -19z
m-257 2 c0 -5 -2 -10 -4 -10 -3 0 -8 5 -11 10 -3 6 -1 10 4 10 6 0 11 -4 11
-10z m158 -15 c-3 -3 -9 2 -12 12 -6 14 -5 15 5 6 7 -7 10 -15 7 -18z m47 15
c3 -5 1 -10 -4 -10 -6 0 -11 5 -11 10 0 6 2 10 4 10 3 0 8 -4 11 -10z m155 0
c-8 -5 -19 -10 -25 -10 -5 0 -3 5 5 10 8 5 20 10 25 10 6 0 3 -5 -5 -10z m233
3 c-7 -2 -19 -2 -25 0 -7 3 -2 5 12 5 14 0 19 -2 13 -5z m-370 -26 c29 -1 33
-3 20 -12 -12 -9 -23 -9 -45 2 -15 8 -28 20 -28 26 0 8 3 7 9 -1 5 -8 24 -14
44 -15z m1297 19 c0 -2 -7 -7 -16 -10 -8 -3 -12 -2 -9 4 6 10 25 14 25 6z
m-1103 -12 c-3 -3 -12 -4 -19 -1 -8 3 -5 6 6 6 11 1 17 -2 13 -5z m48 -4 c-3
-5 -11 -10 -16 -10 -6 0 -7 5 -4 10 3 6 11 10 16 10 6 0 7 -4 4 -10z m-175 -4
c0 -3 -4 -8 -10 -11 -5 -3 -10 -1 -10 4 0 6 5 11 10 11 6 0 10 -2 10 -4z m18
-16 c-7 -11 -16 -20 -20 -20 -5 0 -3 9 4 20 7 11 16 20 20 20 5 0 3 -9 -4 -20z
m1280 -3 c9 -10 11 -17 5 -17 -6 0 -13 4 -15 8 -1 5 -16 12 -33 16 l-30 7 25
-20 c14 -11 22 -22 19 -25 -8 -8 -50 34 -44 44 8 13 54 5 73 -13z m-1379 -3
c2 -2 1 -7 -3 -11 -4 -4 -17 -1 -29 6 -15 10 -22 10 -25 2 -2 -6 -8 -11 -14
-11 -6 0 -6 6 2 15 11 13 53 12 69 -1z m381 12 c0 -2 -8 -10 -17 -17 -16 -13
-17 -12 -4 4 13 16 21 21 21 13z m918 -32 c23 -4 25 -12 9 -29 -10 -9 -18 -11
-22 -5 -3 5 -1 10 4 10 6 0 11 5 11 11 0 5 -4 7 -10 4 -5 -3 -15 -1 -22 5 -7
6 -22 17 -33 26 -14 10 -9 10 15 -2 19 -10 41 -19 48 -20z m-1168 22 c0 -3 -4
-8 -10 -11 -5 -3 -10 -1 -10 4 0 6 5 11 10 11 6 0 10 -2 10 -4z m120 -6 c0 -5
-5 -10 -11 -10 -5 0 -7 5 -4 10 3 6 8 10 11 10 2 0 4 -4 4 -10z m1170 0 c0 -5
-5 -10 -11 -10 -5 0 -7 5 -4 10 3 6 8 10 11 10 2 0 4 -4 4 -10z m-1573 -15 c0
-8 -4 -15 -9 -15 -4 0 -8 7 -8 15 0 8 4 15 8 15 5 0 9 -7 9 -15z m113 -5 c0
-5 -10 -10 -22 -10 -19 0 -20 2 -8 10 19 13 30 13 30 0z m30 -10 c0 -5 -4 -10
-10 -10 -5 0 -10 5 -10 10 0 6 5 10 10 10 6 0 10 -4 10 -10z m60 0 c0 -5 -2
-10 -4 -10 -3 0 -8 5 -11 10 -3 6 -1 10 4 10 6 0 11 -4 11 -10z m70 0 c8 -5
11 -10 5 -10 -5 0 -17 5 -25 10 -8 5 -10 10 -5 10 6 0 17 -5 25 -10z m820 -5
c-7 -8 -17 -15 -23 -15 -6 0 -2 7 9 15 25 19 30 19 14 0z m450 11 c0 -3 -4 -8
-10 -11 -5 -3 -10 -1 -10 4 0 6 5 11 10 11 6 0 10 -2 10 -4z m70 -6 c0 -4 -13
-7 -30 -7 -16 0 -30 3 -30 7 0 3 14 6 30 6 17 0 30 -3 30 -6z m-1160 -4 c0 -3
-4 -8 -10 -11 -5 -3 -10 -1 -10 4 0 6 5 11 10 11 6 0 10 -2 10 -4z m-347 -22
c-3 -9 -9 -12 -12 -7 -3 4 -10 11 -15 16 -5 4 0 7 12 7 15 0 20 -4 15 -16z
m57 -4 c-24 -15 -36 -11 -14 4 10 8 21 12 24 10 2 -3 -2 -9 -10 -14z m236 -9
c0 -16 -3 -27 -6 -25 -7 8 -7 54 0 54 4 0 7 -13 6 -29z m1029 9 c10 -11 16
-20 13 -20 -3 0 -13 9 -23 20 -10 11 -16 20 -13 20 3 0 13 -9 23 -20z m61 5
c-8 -8 -18 -15 -22 -15 -3 0 -1 7 6 15 7 8 17 15 22 15 5 0 3 -7 -6 -15z
m-1286 -5 c0 -5 -5 -10 -11 -10 -5 0 -7 5 -4 10 3 6 8 10 11 10 2 0 4 -4 4
-10z m60 6 c0 -3 -4 -8 -10 -11 -5 -3 -10 -1 -10 4 0 6 5 11 10 11 6 0 10 -2
10 -4z m1267 -11 c0 -8 -4 -12 -9 -9 -5 3 -6 10 -3 15 9 13 12 11 12 -6z m63
11 c0 -3 -4 -8 -10 -11 -5 -3 -10 -1 -10 4 0 6 5 11 10 11 6 0 10 -2 10 -4z
m-1593 -32 c-3 -3 -12 -4 -19 -1 -8 3 -5 6 6 6 11 1 17 -2 13 -5z m500 0 c-3
-3 -12 -4 -19 -1 -8 3 -5 6 6 6 11 1 17 -2 13 -5z m664 -9 c-18 -8 -36 -15
-40 -15 -13 1 45 29 59 29 8 0 0 -6 -19 -14z m-1064 -1 c-3 -3 -12 -4 -19 -1
-8 3 -5 6 6 6 11 1 17 -2 13 -5z m1330 -16 c-3 -8 -6 -5 -6 6 -1 11 2 17 5 13
3 -3 4 -12 1 -19z m-1390 6 c-3 -3 -12 -4 -19 -1 -8 3 -5 6 6 6 11 1 17 -2 13
-5z m1163 2 c0 -2 -7 -7 -16 -10 -8 -3 -12 -2 -9 4 6 10 25 14 25 6z m210 -4
c0 -5 -12 -14 -27 -21 l-28 -12 25 21 c29 22 30 23 30 12z m70 -2 c0 -5 -5
-10 -11 -10 -5 0 -7 5 -4 10 3 6 8 10 11 10 2 0 4 -4 4 -10z m-1559 -37 c13
-16 12 -17 -3 -4 -12 9 -18 10 -18 2 0 -6 -5 -11 -11 -11 -8 0 -8 5 1 15 15
19 15 19 31 -2z m79 -3 c0 -5 -2 -10 -4 -10 -3 0 -8 5 -11 10 -3 6 -1 10 4 10
6 0 11 -4 11 -10z m1157 -36 c-3 -3 -12 -4 -19 -1 -8 3 -5 6 6 6 11 1 17 -2
13 -5z m40 0 c-3 -3 -12 -4 -19 -1 -8 3 -5 6 6 6 11 1 17 -2 13 -5z m58 -12
c-3 -3 -11 0 -18 7 -9 10 -8 11 6 5 10 -3 15 -9 12 -12z m-95 -16 c-7 -7 -14
-6 -21 1 -9 9 -7 12 9 10 14 -1 18 -5 12 -11z m-1175 -16 c3 -6 -1 -7 -9 -4
-18 7 -21 14 -7 14 6 0 13 -4 16 -10z m1222 4 c-3 -3 -12 -4 -19 -1 -8 3 -5 6
6 6 11 1 17 -2 13 -5z m-2 -35 c-3 -12 -7 -24 -10 -27 -3 -3 -3 5 -1 19 6 30
5 29 10 29 3 0 3 -10 1 -21z m40 -47 c-3 -3 -11 0 -18 7 -9 10 -8 11 6 5 10
-3 15 -9 12 -12z"/>
<path d="M3340 3380 c0 -5 5 -10 10 -10 6 0 10 5 10 10 0 6 -4 10 -10 10 -5 0
-10 -4 -10 -10z"/>
<path d="M3116 3032 c-3 -6 -1 -14 5 -17 14 -9 20 -2 10 14 -6 8 -11 9 -15 3z"/>
<path d="M3041 2929 c-1 -9 6 -19 14 -23 9 -3 15 0 15 10 0 8 -4 13 -9 10 -5
-4 -12 0 -14 6 -4 8 -6 7 -6 -3z"/>
<path d="M1710 2822 c0 -12 4 -22 9 -22 10 0 9 26 -2 36 -4 4 -7 -2 -7 -14z"/>
<path d="M1696 2774 c-8 -22 -8 -23 12 -19 9 2 20 4 25 4 4 1 7 8 7 16 0 20
-36 19 -44 -1z m34 2 c0 -3 -4 -8 -10 -11 -5 -3 -10 -1 -10 4 0 6 5 11 10 11
6 0 10 -2 10 -4z"/>
<path d="M1637 2733 c-4 -3 -7 -11 -7 -17 0 -6 5 -5 12 2 6 6 9 14 7 17 -3 3
-9 2 -12 -2z"/>
<path d="M2320 2740 c0 -5 5 -10 11 -10 5 0 7 5 4 10 -3 6 -8 10 -11 10 -2 0
-4 -4 -4 -10z"/>
<path d="M2228 2543 c7 -3 16 -2 19 1 4 3 -2 6 -13 5 -11 0 -14 -3 -6 -6z"/>
<path d="M3070 2450 c0 -5 5 -10 11 -10 5 0 7 5 4 10 -3 6 -8 10 -11 10 -2 0
-4 -4 -4 -10z"/>
<path d="M1541 3507 c-13 -21 -12 -21 5 -5 10 10 16 20 13 22 -3 3 -11 -5 -18
-17z"/>
<path d="M3355 3521 c3 -5 -1 -11 -7 -14 -7 -3 -3 -4 10 -4 25 1 29 12 6 21
-8 3 -13 2 -9 -3z"/>
<path d="M1246 3426 c-26 -35 -46 -67 -46 -71 0 -4 -8 -19 -18 -33 -28 -40
-98 -236 -116 -324 -26 -124 -17 -142 14 -28 45 167 67 226 144 378 40 78 71
142 70 142 -2 0 -23 -29 -48 -64z"/>
<path d="M3285 3310 c3 -5 8 -10 11 -10 2 0 4 5 4 10 0 6 -5 10 -11 10 -5 0
-7 -4 -4 -10z"/>
<path d="M3430 3280 c0 -5 4 -10 9 -10 6 0 13 5 16 10 3 6 -1 10 -9 10 -9 0
-16 -4 -16 -10z"/>
<path d="M926 3251 c9 -9 83 -27 74 -18 -3 3 -23 10 -44 16 -22 5 -35 6 -30 2z"/>
<path d="M1835 3240 c-3 -5 -1 -10 4 -10 6 0 11 5 11 10 0 6 -2 10 -4 10 -3 0
-8 -4 -11 -10z"/>
<path d="M1740 3210 c-9 -6 -10 -10 -3 -10 6 0 15 5 18 10 8 12 4 12 -15 0z"/>
<path d="M3050 3180 c-9 -6 -10 -10 -3 -10 6 0 15 5 18 10 8 12 4 12 -15 0z"/>
<path d="M1670 3176 c0 -2 7 -7 16 -10 8 -3 12 -2 9 4 -6 10 -25 14 -25 6z"/>
<path d="M3048 3153 c7 -3 16 -2 19 1 4 3 -2 6 -13 5 -11 0 -14 -3 -6 -6z"/>
<path d="M1672 3135 c-11 -12 -10 -15 3 -15 8 0 15 7 15 15 0 18 -2 18 -18 0z"/>
<path d="M2200 3140 c-9 -6 -10 -10 -3 -10 6 0 15 5 18 10 8 12 4 12 -15 0z"/>
<path d="M3861 3140 c0 -8 4 -22 9 -30 12 -18 12 -2 0 25 -6 13 -9 15 -9 5z"/>
<path d="M2134 3128 c-3 -4 5 -5 17 -3 30 6 36 14 9 12 -12 -1 -24 -5 -26 -9z"/>
<path d="M960 3120 c-13 -8 -12 -10 3 -10 9 0 17 5 17 10 0 12 -1 12 -20 0z"/>
<path d="M878 3113 c7 -3 16 -2 19 1 4 3 -2 6 -13 5 -11 0 -14 -3 -6 -6z"/>
<path d="M1610 3091 c0 -18 4 -30 9 -26 6 3 8 15 6 27 -7 34 -15 34 -15 -1z"/>
<path d="M2043 3103 c4 -6 1 -14 -5 -16 -10 -4 -10 -6 0 -6 7 -1 10 -6 7 -11
-4 -6 -1 -9 6 -8 6 2 14 -3 17 -11 3 -9 0 -11 -8 -6 -10 6 -12 2 -8 -13 4 -16
2 -22 -10 -22 -8 0 -13 -3 -9 -6 10 -11 47 7 58 28 8 15 8 19 0 14 -11 -7 -14
2 -13 44 0 14 -2 19 -5 12 -4 -10 -8 -10 -21 0 -10 8 -13 9 -9 1z m37 -73 c0
-5 -5 -10 -11 -10 -5 0 -7 5 -4 10 3 6 8 10 11 10 2 0 4 -4 4 -10z"/>
<path d="M2149 3094 c6 -12 8 -24 5 -26 -3 -3 2 -8 10 -11 9 -4 18 -1 22 5 4
7 3 8 -4 4 -15 -9 -16 6 -2 22 7 9 7 9 -2 2 -8 -6 -16 -4 -25 8 -13 15 -13 15
-4 -4z"/>
<path d="M2203 3095 c0 -7 6 -11 14 -8 7 3 13 6 13 8 0 2 -6 5 -13 8 -8 3 -14
-1 -14 -8z"/>
<path d="M2093 3085 c0 -8 4 -12 9 -9 5 3 6 10 3 15 -9 13 -12 11 -12 -6z"/>
<path d="M800 3075 c-7 -9 -8 -15 -2 -15 5 0 12 7 16 15 3 8 4 15 2 15 -2 0
-9 -7 -16 -15z"/>
<path d="M850 3070 c0 -5 5 -10 11 -10 5 0 7 5 4 10 -3 6 -8 10 -11 10 -2 0
-4 -4 -4 -10z"/>
<path d="M886 3071 c-3 -5 2 -15 12 -22 15 -13 16 -12 4 3 -10 13 -10 17 0 21
9 4 9 6 1 6 -6 1 -14 -3 -17 -8z"/>
<path d="M953 3068 c-11 -19 -13 -39 -1 -32 5 3 7 9 4 12 -3 3 -1 11 5 19 6 7
9 13 6 13 -3 0 -9 -6 -14 -12z"/>
<path d="M1956 3065 c-9 -26 -7 -32 5 -12 6 10 9 21 6 23 -2 3 -7 -2 -11 -11z"/>
<path d="M2204 3058 l-19 -23 23 19 c21 18 27 26 19 26 -2 0 -12 -10 -23 -22z"/>
<path d="M1650 3060 c-9 -6 -10 -10 -3 -10 6 0 15 5 18 10 8 12 4 12 -15 0z"/>
<path d="M1980 3066 c0 -2 8 -10 17 -17 9 -8 14 -9 10 -2 -4 6 -1 14 5 16 7 3
3 6 -9 6 -13 1 -23 -1 -23 -3z"/>
<path d="M2115 3061 c-6 -11 13 -26 22 -17 4 3 0 6 -8 6 -11 0 -11 2 1 10 9 6
10 10 3 10 -6 0 -14 -4 -18 -9z"/>
<path d="M2265 3060 c-3 -6 1 -7 9 -4 18 7 21 14 7 14 -6 0 -13 -4 -16 -10z"/>
<path d="M921 3044 c0 -11 3 -14 6 -6 3 7 2 16 -1 19 -3 4 -6 -2 -5 -13z"/>
<path d="M2350 3056 c0 -2 7 -9 15 -16 13 -11 14 -10 9 4 -5 14 -24 23 -24 12z"/>
<path d="M765 3041 c-3 -5 -2 -12 3 -15 5 -3 9 1 9 9 0 17 -3 19 -12 6z"/>
<path d="M1610 3039 c0 -5 5 -7 10 -4 6 3 10 8 10 11 0 2 -4 4 -10 4 -5 0 -10
-5 -10 -11z"/>
<path d="M1975 3017 c0 -18 -4 -35 -9 -39 -12 -8 -36 1 -36 14 0 6 6 5 15 -2
9 -7 15 -8 15 -2 0 17 -30 23 -36 7 -4 -8 -17 -15 -31 -15 -13 0 -22 -4 -19
-8 2 -4 26 -7 53 -6 66 2 66 2 59 19 -4 10 5 20 27 29 l32 15 -34 -6 c-23 -4
-32 -3 -27 5 3 6 3 13 -2 16 -5 3 -8 -9 -7 -27z"/>
<path d="M2330 3046 c0 -2 8 -10 18 -17 15 -13 16 -12 3 4 -13 16 -21 21 -21
13z"/>
<path d="M2240 3031 c0 -10 19 -25 25 -20 1 2 -3 10 -11 17 -8 7 -14 8 -14 3z"/>
<path d="M2297 3029 c-9 -6 -15 -14 -12 -20 4 -5 -6 -9 -20 -9 -14 0 -24 -4
-20 -10 3 -5 12 -7 21 -3 8 3 27 -5 42 -18 l27 -24 -24 28 c-20 21 -21 27 -8
27 10 0 15 8 14 20 -1 11 -1 20 -2 20 0 0 -8 -5 -18 -11z"/>
<path d="M2102 3020 c2 -7 -11 -17 -32 -22 -19 -6 -38 -15 -42 -21 -5 -8 -8
-6 -8 6 0 10 -7 17 -17 16 -11 0 -13 -3 -5 -6 6 -2 12 -8 12 -13 0 -13 -59
-40 -66 -29 -6 10 -90 6 -101 -5 -4 -3 17 -5 45 -3 29 3 52 0 52 -5 0 -5 -3
-7 -7 -5 -5 3 -17 1 -28 -4 -19 -7 -19 -8 3 -8 13 -1 36 6 52 14 17 9 30 11
30 6 0 -6 8 -8 18 -5 14 5 15 4 2 -5 -13 -10 -13 -12 0 -22 12 -9 12 -10 -4
-5 -25 8 -56 -2 -52 -17 1 -7 1 -9 -1 -4 -7 11 -33 9 -33 -3 0 -5 6 -10 14
-10 8 0 28 -14 46 -30 18 -17 30 -23 26 -15 -3 9 0 15 9 15 8 0 12 6 9 14 -7
19 36 41 96 51 49 8 73 22 64 37 -4 6 -10 5 -14 -3 -5 -7 -18 -13 -29 -14 -11
-1 -18 2 -15 7 3 4 0 8 -5 8 -6 0 -11 -7 -11 -15 0 -10 -10 -15 -29 -15 -16 0
-31 -5 -33 -12 -3 -9 -6 -9 -12 0 -4 7 -2 12 3 12 6 0 11 5 11 11 0 5 -5 7
-11 3 -7 -4 -10 -2 -8 5 3 7 8 12 12 12 4 -1 17 -1 30 -2 21 0 21 -1 2 -9 -19
-8 -19 -9 3 -9 13 -1 22 5 22 14 0 8 5 15 11 15 6 0 9 7 5 15 -3 9 0 15 10 15
8 0 12 -5 9 -10 -8 -13 17 -9 28 5 5 6 7 4 4 -6 -4 -12 3 -15 40 -13 25 1 48
6 51 9 4 4 -9 6 -28 5 -49 -3 -58 0 -35 10 19 8 19 9 -3 9 -13 1 -20 5 -17 11
6 10 -7 14 -33 11 -8 -1 -20 3 -28 10 -12 10 -15 10 -12 -1z m58 -24 c0 -8
-11 -13 -30 -12 -38 1 -39 13 -2 19 15 2 28 5 30 6 1 0 2 -5 2 -13z m-87 -24
c-10 -10 -31 -18 -48 -19 -21 0 -23 1 -7 4 12 2 22 8 22 13 0 7 17 15 43 19 4
0 -1 -7 -10 -17z m32 -12 c-3 -5 -13 -10 -21 -10 -8 0 -14 5 -14 10 0 6 9 10
21 10 11 0 17 -4 14 -10z m-84 -70 c6 0 7 -5 4 -10 -4 -7 -12 -7 -24 0 -10 5
-22 6 -26 2 -5 -4 -5 -1 -1 6 5 7 15 11 23 8 8 -3 19 -6 24 -6z m-21 -30 c13
-9 13 -10 0 -10 -8 0 -22 5 -30 10 -13 9 -13 10 0 10 8 0 22 -5 30 -10z"/>
<path d="M2334 3002 c3 -5 0 -13 -6 -15 -9 -4 -10 -6 -1 -6 17 -1 25 16 12 25
-7 4 -9 3 -5 -4z"/>
<path d="M2367 2985 c-4 -8 -3 -16 1 -19 4 -3 9 4 9 15 2 23 -3 25 -10 4z"/>
<path d="M713 2983 c9 -2 25 -2 35 0 9 3 1 5 -18 5 -19 0 -27 -2 -17 -5z"/>
<path d="M770 2950 c0 -5 5 -10 11 -10 5 0 7 5 4 10 -3 6 -8 10 -11 10 -2 0
-4 -4 -4 -10z"/>
<path d="M2395 2950 c-3 -6 1 -7 9 -4 18 7 21 14 7 14 -6 0 -13 -4 -16 -10z"/>
<path d="M2130 2946 c0 -2 7 -6 15 -10 8 -3 15 -1 15 4 0 6 -7 10 -15 10 -8 0
-15 -2 -15 -4z"/>
<path d="M2938 2933 c7 -3 16 -2 19 1 4 3 -2 6 -13 5 -11 0 -14 -3 -6 -6z"/>
<path d="M700 2920 c-18 -12 -2 -12 25 0 13 6 15 9 5 9 -8 0 -22 -4 -30 -9z"/>
<path d="M1935 2910 c-16 -7 -17 -9 -3 -9 9 -1 20 4 23 9 7 11 7 11 -20 0z"/>
<path d="M2918 2913 c7 -3 16 -2 19 1 4 3 -2 6 -13 5 -11 0 -14 -3 -6 -6z"/>
<path d="M2470 2900 c-11 -7 -11 -10 -2 -10 7 0 11 -4 8 -8 -3 -5 1 -9 9 -9
10 0 12 4 5 12 -5 7 -7 15 -3 18 9 10 0 8 -17 -3z"/>
<path d="M2861 2885 c3 -2 23 -5 44 -6 22 -1 48 -6 58 -11 10 -5 17 -5 17 1 0
5 -7 12 -16 15 -18 7 -110 8 -103 1z"/>
<path d="M2181 2866 c-9 -10 -6 -12 14 -8 29 5 31 8 11 15 -8 3 -19 0 -25 -7z"/>
<path d="M2870 2859 l-25 -7 25 -2 c41 -3 64 -7 81 -14 10 -4 20 -3 24 3 3 6
3 11 -2 11 -4 0 -24 4 -43 8 -19 5 -46 5 -60 1z"/>
<path d="M1580 2851 c0 -5 -8 -11 -17 -13 -14 -3 -13 -5 5 -10 13 -4 21 -4 18
-1 -3 4 -1 12 5 20 9 9 8 13 0 13 -6 0 -11 -4 -11 -9z"/>
<path d="M1041 2824 c0 -11 3 -14 6 -6 3 7 2 16 -1 19 -3 4 -6 -2 -5 -13z"/>
<path d="M2556 2827 c3 -10 9 -15 12 -12 3 3 0 11 -7 18 -10 9 -11 8 -5 -6z"/>
<path d="M2829 2830 c-6 -4 11 -10 37 -14 56 -7 119 -8 112 -1 -9 9 -137 22
-149 15z"/>
<path d="M1507 2813 c3 -7 6 -13 8 -13 1 0 7 6 13 13 8 10 6 13 -7 13 -11 0
-17 -6 -14 -13z"/>
<path d="M660 2800 c0 -13 11 -13 30 0 12 8 11 10 -7 10 -13 0 -23 -4 -23 -10z"/>
<path d="M1560 2790 c-13 -9 -13 -10 0 -10 11 0 12 -2 3 -8 -9 -6 -7 -11 6
-19 20 -13 24 -1 8 24 -4 6 -1 14 5 16 7 3 9 6 3 6 -5 0 -17 -4 -25 -9z"/>
<path d="M1554 2729 c-4 -8 -3 -9 4 -5 13 8 14 5 16 -36 2 -40 12 -42 14 -4 3
36 -20 67 -34 45z"/>
<path d="M2710 2720 c0 -5 -7 -7 -15 -4 -10 4 -15 0 -15 -15 0 -12 4 -21 10
-21 5 0 6 7 3 17 -4 10 -2 14 5 9 6 -3 13 -2 17 4 4 6 11 8 16 5 5 -4 9 -1 9
4 0 6 -7 11 -15 11 -8 0 -15 -4 -15 -10z"/>
<path d="M1480 2654 c-17 -9 -20 -14 -9 -14 9 0 22 7 29 15 15 18 13 18 -20
-1z"/>
<path d="M1540 2660 c-9 -6 -10 -10 -3 -10 6 0 15 5 18 10 8 12 4 12 -15 0z"/>
<path d="M1506 2633 c-6 -14 -5 -15 5 -6 7 7 10 15 7 18 -3 3 -9 -2 -12 -12z"/>
<path d="M1555 2640 c-4 -6 2 -10 12 -11 16 0 16 -1 -2 -9 -11 -5 -14 -9 -7
-9 7 -1 11 -5 8 -10 -3 -5 -16 -7 -29 -5 l-22 5 23 -10 c34 -16 26 -22 -20
-16 -36 3 -38 3 -13 -4 17 -5 43 -9 59 -10 25 -1 27 1 15 16 -8 10 -9 14 -2
10 8 -5 11 2 11 22 -1 30 -22 49 -33 31z"/>
<path d="M1458 2538 c5 -5 16 -8 23 -6 8 3 3 7 -10 11 -17 4 -21 3 -13 -5z"/>
<path d="M1561 2541 c-7 -5 -23 -7 -35 -4 -18 3 -18 2 3 -7 16 -7 28 -7 36 0
6 5 15 7 18 3 4 -3 7 -1 7 5 0 14 -10 15 -29 3z"/>
<path d="M2350 2359 c0 -5 5 -7 10 -4 6 3 10 8 10 11 0 2 -4 4 -10 4 -5 0 -10
-5 -10 -11z"/>
<path d="M3515 2280 c-3 -5 1 -10 10 -10 9 0 13 5 10 10 -3 6 -8 10 -10 10 -2
0 -7 -4 -10 -10z"/>
<path d="M2480 2228 c19 -18 34 -35 33 -38 -1 -4 5 -7 13 -7 8 0 12 2 10 4 -2
3 0 18 5 36 5 17 5 27 0 21 -5 -5 -11 -18 -14 -29 -4 -17 -5 -16 -6 5 -1 17
-4 21 -9 12 -7 -9 -14 -8 -32 8 -38 33 -38 22 0 -12z"/>
<path d="M2620 2068 c0 -4 5 -8 11 -8 5 0 7 -4 4 -10 -3 -5 -1 -10 5 -10 6 0
9 -4 6 -9 -4 -5 9 -4 28 1 48 15 41 40 -12 42 -23 1 -42 -1 -42 -6z m64 -17
c-9 -9 -34 -9 -34 -1 0 5 9 8 20 7 10 -1 17 -3 14 -6z"/>
<path d="M1458 2043 c7 -3 16 -2 19 1 4 3 -2 6 -13 5 -11 0 -14 -3 -6 -6z"/>
<path d="M1240 1806 c0 -2 8 -10 18 -17 15 -13 16 -12 3 4 -13 16 -21 21 -21
13z"/>
</g>
</svg>
